<?xml version="1.0" encoding="iso-8859-1"?>
<!-- Generator: Adobe Illustrator 19.0.0, SVG Export Plug-In . SVG Version: 6.00 Build 0)  -->
<svg version="1.1" id="Capa_1" xmlns="http://www.w3.org/2000/svg" xmlns:xlink="http://www.w3.org/1999/xlink" x="0px" y="0px"
	 viewBox="0 0 511.999 511.999" style="enable-background:new 0 0 511.999 511.999;" xml:space="preserve">
<path style="fill:#FF395E;" d="M83.157,295.849v43.143l-23.922,9.32c-0.587,0.229-1.25,0.154-1.772-0.201l-25.062-17.043
	l-31.279-0.92c-1.153-0.034-1.549-1.551-0.56-2.144l32.093-19.255c0.495-0.297,1.097-0.355,1.64-0.157l20.943,7.616
	c0.615,0.224,1.303,0.117,1.822-0.282L83.157,295.849z"/>
<polygon style="fill:#B12E65;" points="69.733,344.222 83.157,338.992 83.157,295.849 69.733,306.175 "/>
<rect x="195.029" y="350.158" style="fill:#E2E2E3;" width="118.087" height="93.361"/>
<path style="fill:#B9C1C1;" d="M195.029,350.161v93.364h96.06l-2.94-2.659c-21.697-19.626-34.076-47.515-34.076-76.772v-13.933
	L195.029,350.161L195.029,350.161z"/>
<path style="fill:#FFFFFF;" d="M274.79,354.892v36.307c0,2.838-2.289,5.127-5.127,5.127h-31.179c-2.838,0-5.127-2.289-5.127-5.127
	v-36.307H274.79z"/>
<path style="fill:#DCDDDD;" d="M481.962,333.657c-2.139,0-4.27-0.878-5.805-2.602l-62.151-65.941
	c-2.854-3.205-2.569-8.115,0.635-10.969c3.204-2.853,8.114-2.569,10.969,0.635l62.151,65.941c2.854,3.205,2.569,8.115-0.635,10.969
	C485.645,333.009,483.801,333.657,481.962,333.657z"/>
<path style="fill:#B5BABA;" d="M486.479,329.14c-2.139,0-4.27-0.878-5.805-2.602l-35.335-37.49c-1.857-1.97-2.891-4.575-2.891-7.283
	v-9.119l-16.839-17.865c-2.365-2.655-6.138-3.298-9.186-1.82c-0.005,0.003-0.011,0.006-0.017,0.008
	c-0.2,0.097-0.397,0.201-0.59,0.317c-0.052,0.031-0.102,0.067-0.153,0.099c-0.148,0.094-0.296,0.186-0.44,0.291
	c-0.2,0.145-0.394,0.3-0.582,0.468c-3.204,2.853-3.489,7.764-0.635,10.969l62.151,65.941c1.535,1.724,3.665,2.602,5.805,2.602
	c1.838,0,3.684-0.648,5.164-1.967c0.969-0.863,1.667-1.915,2.096-3.051C488.338,328.973,487.407,329.14,486.479,329.14z"/>
<path style="fill:#DCDDDD;" d="M336.453,169.993c-2.139,0-4.27-0.878-5.805-2.602l-42.1-44.841
	c-2.854-3.205-2.569-8.115,0.635-10.969c3.204-2.853,8.114-2.569,10.969,0.635l42.1,44.841c2.854,3.205,2.569,8.115-0.635,10.969
	C340.136,169.344,338.29,169.993,336.453,169.993z"/>
<path style="fill:#B9C1C1;" d="M342.848,166.618c0.046-0.066,0.09-0.132,0.134-0.199c0.147-0.228,0.282-0.462,0.402-0.701
	c0.011-0.024,0.026-0.046,0.037-0.069c0.14-0.285,0.262-0.577,0.365-0.874l0,0l0,0c0.892-2.573,0.406-5.539-1.534-7.717
	l-17.059-18.171h-6.898c-3.276,0-6.407-1.355-8.649-3.744l-16.315-17.376c-1.941-2.179-2.426-5.147-1.532-7.721
	c-0.937,0.325-1.828,0.835-2.614,1.535c-3.204,2.853-3.489,7.764-0.635,10.969l15.339,16.337l0,0l26.761,28.503
	c1.535,1.724,3.665,2.602,5.805,2.602c1.838,0,3.684-0.648,5.164-1.967c0.235-0.209,0.45-0.432,0.653-0.662
	c0.057-0.064,0.109-0.131,0.163-0.196C342.58,166.989,342.719,166.807,342.848,166.618z"/>
<path style="fill:#717483;" d="M427.578,154.455H167.579H79.532l0.518,32.284v159.793c0,7.479,6.06,13.539,13.539,13.539h320.969
	c7.479,0,13.539-6.06,13.539-13.539V194.045L427.578,154.455z"/>
<g>
	<path style="fill:#4C5574;" d="M167.579,154.455H79.532l0.518,32.284v25.709c9.933,4,20.764,6.225,32.111,6.225
		c39.942,0,73.618-27.301,83.374-64.219H167.579z"/>
	<path style="fill:#4C5574;" d="M134.316,277.573c1.254,0.355,2.522,0.381,3.715,0.129c2.734-0.577,5.063-2.612,5.877-5.487
		c1.169-4.128-1.229-8.423-5.356-9.592l-58.503-18.138v16.263L134.316,277.573z"/>
	<path style="fill:#4C5574;" d="M247.816,154.455L139.065,260.377c-3.088,2.979-3.176,7.897-0.197,10.985
		c1.413,1.465,3.261,2.254,5.144,2.362c2.087,0.12,4.217-0.599,5.841-2.165l120.231-117.104L247.816,154.455L247.816,154.455z"/>
	<path style="fill:#4C5574;" d="M428.096,194.045l-0.231-17.619l-147.814,71.477c-1.878,0.907-4.063-0.441-4.092-2.527
		l-0.213-15.484c-0.029-2.071-2.187-3.421-4.062-2.541l-81.649,38.327c-0.507,0.238-0.871,0.701-0.983,1.25l-3.311,16.306
		c-0.269,1.329,0.994,2.459,2.283,2.035c10.936-3.59,48.732-14.151,60.103-17.316c1.706-0.474,3.42,0.706,3.594,2.468l2.1,21.306
		c0.173,1.757,1.886,2.936,3.589,2.469l170.683-46.705v-53.448H428.096z"/>
</g>
<path style="fill:#8ACAEB;" d="M396.388,180.351H110.721c-2.923,0-5.293,2.37-5.293,5.293V329.4c0,2.923,2.37,5.293,5.293,5.293
	h285.667c2.923,0,5.293-2.37,5.293-5.293V185.645C401.681,182.721,399.311,180.351,396.388,180.351z"/>
<path style="fill:#8BB1EA;" d="M110.721,180.351c-2.923,0-5.293,2.37-5.293,5.293v32.742c2.224,0.174,4.465,0.287,6.733,0.287
	c29.831,0,56.163-15.232,71.649-38.322L110.721,180.351L110.721,180.351z"/>
<g>
	<path style="fill:#61ACC8;" d="M138.552,262.624l-33.124-10.269v16.263l28.888,8.957c1.254,0.355,2.522,0.381,3.715,0.129
		c2.734-0.577,5.063-2.612,5.877-5.487C145.079,268.089,142.681,263.793,138.552,262.624z"/>
	<path style="fill:#61ACC8;" d="M221.229,180.351l-82.164,80.027c-3.088,2.979-3.176,7.897-0.197,10.985
		c1.413,1.465,3.261,2.254,5.144,2.362c2.087,0.12,4.217-0.599,5.841-2.165l93.644-91.208h-22.269V180.351z"/>
</g>
<path style="fill:#8BB1EA;" d="M401.681,189.088l-121.631,58.816c-1.878,0.907-4.063-0.441-4.092-2.527l-0.213-15.484
	c-0.029-2.071-2.187-3.421-4.062-2.541l-81.649,38.327c-0.507,0.238-0.871,0.701-0.983,1.25l-3.311,16.306
	c-0.269,1.329,0.994,2.459,2.283,2.035c10.936-3.59,48.732-14.151,60.103-17.316c1.706-0.474,3.42,0.706,3.594,2.468l2.1,21.306
	c0.173,1.757,1.886,2.936,3.589,2.469l144.269-39.477v-65.634H401.681z"/>
<path style="fill:#717483;" d="M345.228,439.998v15.206c0,3.522-2.859,6.381-6.381,6.381H169.299c-3.522,0-6.381-2.859-6.381-6.381
	v-15.206c0-3.522,2.859-6.381,6.381-6.381h169.548C342.369,433.617,345.228,436.476,345.228,439.998z"/>
<path style="fill:#FF395E;" d="M511.999,69.495V203.92c0,2.391-2.978,3.485-4.527,1.664l-28.057-33.008
	c-1.547-1.819-4.137-2.343-6.268-1.267L258.124,279.825c-1.577,0.796-3.49-0.019-4.009-1.706l-6.296-20.462
	c-0.521-1.693-2.436-2.509-4.014-1.704c-10.515,5.364-45.453,23.232-55.456,28.927c-1.179,0.671-2.642-0.185-2.642-1.541V266.7
	c0-0.56,0.265-1.087,0.715-1.421l72.391-53.804c1.663-1.236,4.046-0.342,4.486,1.682l3.29,15.133
	c0.443,2.038,2.853,2.926,4.512,1.663l153.045-116.511c2.206-1.68,2.697-4.798,1.108-7.071
	c-5.802-8.301-18.934-27.124-24.572-35.441c-1.156-1.704,0.064-4.001,2.123-4.001c19.365,0,92.04,0,106.634,0
	C510.857,66.926,511.999,68.076,511.999,69.495z"/>
<path style="fill:#DCDDDD;" d="M137.014,276.686c-1.219,0-2.455-0.287-3.608-0.894l-105.06-58.562
	c-3.798-1.996-5.258-6.694-3.262-10.491s6.695-5.258,10.491-3.262l105.06,58.562c3.798,1.996,5.258,6.694,3.262,10.491
	C142.509,275.175,139.808,276.686,137.014,276.686z"/>
<path style="fill:#B9C1C1;" d="M137.014,266.88c-1.219,0-2.455-0.287-3.608-0.894l-105.06-58.562
	c-0.959-0.504-1.768-1.182-2.411-1.973c-0.319,0.394-0.606,0.822-0.85,1.289c-1.996,3.798-0.537,8.495,3.262,10.491l105.06,58.562
	c1.154,0.606,2.39,0.894,3.608,0.894c2.794,0,5.493-1.511,6.883-4.156c1.495-2.843,1.051-6.191-0.861-8.532
	C141.543,265.84,139.317,266.88,137.014,266.88z"/>
<path style="fill:#DCDDDD;" d="M144.271,273.578c-1.886,0-3.777-0.683-5.27-2.063c-3.151-2.913-3.345-7.828-0.432-10.978
	l134.661-147.091c2.912-3.152,7.827-3.346,10.978-0.432c3.151,2.913,3.345,7.828,0.432,10.978L149.978,271.082
	C148.447,272.739,146.361,273.578,144.271,273.578z"/>
<path style="fill:#B9C1C1;" d="M284.206,113.013c-0.99-0.916-2.155-1.524-3.377-1.829c0.619,2.46,0.028,5.174-1.822,7.176
	L144.346,265.451c-1.531,1.657-3.616,2.496-5.708,2.496c-0.637,0-1.273-0.085-1.896-0.241c0.354,1.414,1.106,2.746,2.257,3.809
	c1.494,1.381,3.385,2.063,5.27,2.063c2.091,0,4.177-0.839,5.708-2.496l134.661-147.091
	C287.55,120.841,287.357,115.926,284.206,113.013z"/>
<path style="fill:#EAB430;" d="M487.139,315.53c8.577,0,15.538,6.961,15.538,15.538c0,8.577-6.961,15.538-15.538,15.538
	c-8.577,0-15.538-6.961-15.538-15.538C471.601,322.491,478.562,315.53,487.139,315.53z"/>
<circle style="fill:#FF395E;" cx="112.161" cy="132.443" r="60.338"/>
<path style="fill:#B12E65;" d="M135.135,76.645l-22.974,55.539l55.847,23.102c2.886-7.048,4.488-14.758,4.488-22.845
	C172.497,107.254,157.06,85.683,135.135,76.645z"/>
<path style="fill:#EFC343;" d="M190.784,132.184h-78.623V53.561c0-1.788,1.492-3.215,3.278-3.144
	c42.521,1.683,76.806,35.969,78.489,78.489C194,130.692,192.571,132.184,190.784,132.184z"/>
<g>
	<path style="fill:#EAB430;" d="M22.042,189.156c9.157,0,16.574,7.417,16.574,16.574s-7.417,16.574-16.574,16.574
		S5.469,214.887,5.469,205.73S12.885,189.156,22.042,189.156z"/>
	<circle style="fill:#EAB430;" cx="141.165" cy="270.988" r="13.466"/>
	<path style="fill:#EAB430;" d="M285.148,92.822c9.157,0,16.574,7.417,16.574,16.574s-7.417,16.574-16.574,16.574
		c-9.157,0-16.574-7.417-16.574-16.574S275.991,92.822,285.148,92.822z"/>
</g>
<g>
</g>
<g>
</g>
<g>
</g>
<g>
</g>
<g>
</g>
<g>
</g>
<g>
</g>
<g>
</g>
<g>
</g>
<g>
</g>
<g>
</g>
<g>
</g>
<g>
</g>
<g>
</g>
<g>
</g>
</svg>
