<?xml version="1.0" encoding="iso-8859-1"?>
<!-- Generator: Adobe Illustrator 19.0.0, SVG Export Plug-In . SVG Version: 6.00 Build 0)  -->
<svg version="1.1" id="Capa_1" xmlns="http://www.w3.org/2000/svg" xmlns:xlink="http://www.w3.org/1999/xlink" x="0px" y="0px"
	 viewBox="0 0 480 480" style="enable-background:new 0 0 480 480;" xml:space="preserve">
<linearGradient id="SVGID_1_" gradientUnits="userSpaceOnUse" x1="-26.875" y1="563.535" x2="-26.875" y2="616.083" gradientTransform="matrix(8 0 0 -8 455 4941)">
	<stop  offset="0" style="stop-color:#006DF0"/>
	<stop  offset="1" style="stop-color:#00E7F0"/>
</linearGradient>
<path style="fill:url(#SVGID_1_);" d="M480,72c0-4.418-3.582-8-8-8H8c-4.418,0-8,3.582-8,8v336v0.152
	c0.012,0.816,0.15,1.626,0.408,2.4c0.064,0.2,0.176,0.376,0.256,0.576c0.14,0.383,0.308,0.754,0.504,1.112
	c0.104,0.16,0.24,0.28,0.352,0.432c0.157,0.217,0.325,0.425,0.504,0.624c0.38,0.425,0.804,0.808,1.264,1.144
	c0.179,0.148,0.366,0.287,0.56,0.416c0.681,0.422,1.423,0.738,2.2,0.936h0.088C6.748,415.93,7.373,415.999,8,416h464
	c0.946-0.018,1.881-0.208,2.76-0.56c0.216-0.08,0.424-0.16,0.632-0.256c0.824-0.371,1.579-0.879,2.232-1.504
	c0.048-0.048,0.08-0.112,0.128-0.16c0.427-0.429,0.803-0.907,1.12-1.424c0.128-0.216,0.184-0.456,0.296-0.672
	s0.184-0.416,0.272-0.632c0.344-0.873,0.533-1.798,0.56-2.736L480,72z M16,80h448v296.432l-88.968-164.248
	c-1.457-2.604-4.216-4.208-7.2-4.184c-2.983,0.05-5.691,1.755-7.024,4.424L284,366.112L159.2,116.424
	c-2.358-3.954-7.475-5.249-11.429-2.891c-1.189,0.709-2.182,1.702-2.891,2.891L16,374.112V80z M20.944,400L152,137.888L283.056,400
	H20.944z M300.944,400l-8-16l75.344-150.68L458.568,400H300.944z"/>
<linearGradient id="SVGID_2_" gradientUnits="userSpaceOnUse" x1="-20.875" y1="563.535" x2="-20.875" y2="616.083" gradientTransform="matrix(8 0 0 -8 455 4941)">
	<stop  offset="0" style="stop-color:#006DF0"/>
	<stop  offset="1" style="stop-color:#00E7F0"/>
</linearGradient>
<path style="fill:url(#SVGID_2_);" d="M288,216c22.091,0,40-17.909,40-40s-17.909-40-40-40s-40,17.909-40,40
	C248.026,198.08,265.92,215.974,288,216z M288,152c13.255,0,24,10.745,24,24s-10.745,24-24,24s-24-10.745-24-24S274.745,152,288,152
	z"/>
<g>
</g>
<g>
</g>
<g>
</g>
<g>
</g>
<g>
</g>
<g>
</g>
<g>
</g>
<g>
</g>
<g>
</g>
<g>
</g>
<g>
</g>
<g>
</g>
<g>
</g>
<g>
</g>
<g>
</g>
</svg>
