<?xml version="1.0" encoding="iso-8859-1"?>
<!-- Generator: Adobe Illustrator 21.0.0, SVG Export Plug-In . SVG Version: 6.00 Build 0)  -->
<svg xmlns="http://www.w3.org/2000/svg" xmlns:xlink="http://www.w3.org/1999/xlink" version="1.1" id="Capa_1" x="0px" y="0px" viewBox="0 0 578.896 578.896" style="enable-background:new 0 0 578.896 578.896;" xml:space="preserve" width="512" height="512">
<g>
	<g id="Danger">
		<path style="fill:#FFD422;" d="M259.505,509.029c0-16.537,13.406-29.943,29.943-29.943v-39.924h-19.962l-9.981-279.467h29.943V0    L0,578.896h289.448v-39.924C272.911,538.972,259.505,525.566,259.505,509.029z"/>
		<path style="fill:#FFDD4E;" d="M289.448,0v159.695h29.943l-9.981,279.467h-19.962v39.924c16.537,0,29.943,13.406,29.943,29.943    s-13.406,29.943-29.943,29.943v39.924h289.448L289.448,0z"/>
		<polygon style="fill:#F14950;" points="309.41,439.162 319.391,159.695 289.448,159.695 289.448,439.162   "/>
		<polygon style="fill:#ED1C24;" points="269.486,439.162 289.448,439.162 289.448,159.695 259.505,159.695   "/>
		<path style="fill:#ED1C24;" d="M259.505,509.029c0,16.537,13.406,29.943,29.943,29.943v-59.886    C272.911,479.086,259.505,492.492,259.505,509.029z"/>
		<path style="fill:#F14950;" d="M319.391,509.029c0-16.537-13.406-29.943-29.943-29.943v59.886    C305.985,538.972,319.391,525.566,319.391,509.029z"/>
	</g>
</g>















</svg>
