<?xml version="1.0" encoding="iso-8859-1"?>
<!-- Generator: Adobe Illustrator 19.0.0, SVG Export Plug-In . SVG Version: 6.00 Build 0)  -->
<svg version="1.1" id="Capa_1" xmlns="http://www.w3.org/2000/svg" xmlns:xlink="http://www.w3.org/1999/xlink" x="0px" y="0px"
	 viewBox="0 0 480.003 480.003" style="enable-background:new 0 0 480.003 480.003;" xml:space="preserve">
<linearGradient id="SVGID_1_" gradientUnits="userSpaceOnUse" x1="-26.8688" y1="560.395" x2="-26.8688" y2="625.968" gradientTransform="matrix(8 0 0 -8 454.9907 4941)">
	<stop  offset="0" style="stop-color:#006DF0"/>
	<stop  offset="1" style="stop-color:#00E7F0"/>
</linearGradient>
<path style="fill:url(#SVGID_1_);" d="M246.217,64.152c-70.611-3.392-130.603,51.099-133.995,121.71
	c-1.943,40.432,15.354,79.4,46.643,105.082c5.643,4.414,8.998,11.133,9.136,18.296V328c0.042,10.134,6.445,19.15,16,22.528V360
	c0.021,5.923,2.245,11.627,6.24,16c-8.32,9.044-8.32,22.956,0,32c-8.87,9.677-8.215,24.712,1.461,33.581
	c2.566,2.352,5.618,4.112,8.939,5.155c3.651,21.716,24.216,36.36,45.932,32.708c16.759-2.818,29.89-15.949,32.708-32.708
	c12.534-3.899,19.535-17.22,15.636-29.755c-1.038-3.336-2.798-6.403-5.156-8.981c8.32-9.044,8.32-22.956,0-32
	c3.995-4.373,6.219-10.077,6.24-16v-9.472c9.555-3.378,15.958-12.394,16-22.528v-17.832c-0.107-7.187,3.007-14.046,8.488-18.696
	c30.342-24.396,47.848-61.34,47.512-100.272C366.842,123.534,313.774,68.172,246.217,64.152L246.217,64.152z M280.001,352v8
	c0,4.418-3.582,8-8,8h-64c-4.418,0-8-3.582-8-8v-8H280.001z M280.001,392c0,4.418-3.582,8-8,8h-64c-4.418,0-8-3.582-8-8s3.582-8,8-8
	h64C276.42,384,280.001,387.582,280.001,392z M240.001,464c-10.168-0.012-19.229-6.418-22.632-16h45.264
	C259.23,457.582,250.169,463.988,240.001,464L240.001,464z M272.001,432h-64c-4.418,0-8-3.582-8-8s3.582-8,8-8h64
	c4.418,0,8,3.582,8,8S276.42,432,272.001,432z M310.441,279.024c-9.29,7.652-14.602,19.109-14.44,31.144V328c0,4.418-3.582,8-8,8
	h-40V184c0-4.418-3.582-8-8-8s-8,3.582-8,8v152h-40c-4.418,0-8-3.582-8-8v-18.76c-0.131-11.962-5.64-23.23-15-30.68
	c-47.806-39.252-54.74-109.827-15.487-157.633C174.759,95.052,206.466,80.039,239.945,80c1.832,0,3.672,0.04,5.512,0.136
	c59.116,3.517,105.549,51.972,106.544,111.184C352.288,225.372,336.977,257.683,310.441,279.024L310.441,279.024z"/>
<linearGradient id="SVGID_2_" gradientUnits="userSpaceOnUse" x1="-26.8737" y1="560.395" x2="-26.8737" y2="625.968" gradientTransform="matrix(8 0 0 -8 454.9907 4941)">
	<stop  offset="0" style="stop-color:#006DF0"/>
	<stop  offset="1" style="stop-color:#00E7F0"/>
</linearGradient>
<path style="fill:url(#SVGID_2_);" d="M240.001,48c4.418,0,8-3.582,8-8V8c0-4.418-3.582-8-8-8s-8,3.582-8,8v32
	C232.001,44.418,235.583,48,240.001,48z"/>
<linearGradient id="SVGID_3_" gradientUnits="userSpaceOnUse" x1="-37.3737" y1="560.395" x2="-37.3737" y2="625.965" gradientTransform="matrix(8 0 0 -8 454.9907 4941)">
	<stop  offset="0" style="stop-color:#006DF0"/>
	<stop  offset="1" style="stop-color:#00E7F0"/>
</linearGradient>
<path style="fill:url(#SVGID_3_);" d="M157.073,64.36c2.184,3.841,7.068,5.184,10.909,3c3.841-2.184,5.184-7.068,3-10.909
	c-0.017-0.031-0.035-0.061-0.053-0.092l-16-27.704c-2.184-3.841-7.068-5.184-10.909-3s-5.184,7.068-3,10.909
	c0.017,0.031,0.035,0.061,0.053,0.092L157.073,64.36z"/>
<g>
	
		<linearGradient id="SVGID_4_" gradientUnits="userSpaceOnUse" x1="-45.0545" y1="560.395" x2="-45.0545" y2="625.968" gradientTransform="matrix(8 0 0 -8 454.9907 4941)">
		<stop  offset="0" style="stop-color:#006DF0"/>
		<stop  offset="1" style="stop-color:#00E7F0"/>
	</linearGradient>
	<path style="fill:url(#SVGID_4_);" d="M76.649,106.928l27.72,16c3.812,2.234,8.713,0.956,10.947-2.856s0.956-8.713-2.856-10.947
		c-0.03-0.018-0.061-0.035-0.091-0.053l-27.72-16c-3.841-2.184-8.725-0.841-10.909,3C71.577,99.877,72.873,104.714,76.649,106.928z"
		/>
	
		<linearGradient id="SVGID_5_" gradientUnits="userSpaceOnUse" x1="-47.8737" y1="560.395" x2="-47.8737" y2="625.968" gradientTransform="matrix(8 0 0 -8 454.9907 4941)">
		<stop  offset="0" style="stop-color:#006DF0"/>
		<stop  offset="1" style="stop-color:#00E7F0"/>
	</linearGradient>
	<path style="fill:url(#SVGID_5_);" d="M96.001,192c0-4.418-3.582-8-8-8h-32c-4.418,0-8,3.582-8,8s3.582,8,8,8h32
		C92.42,200,96.001,196.418,96.001,192z"/>
	
		<linearGradient id="SVGID_6_" gradientUnits="userSpaceOnUse" x1="-45.0602" y1="560.395" x2="-45.0602" y2="625.968" gradientTransform="matrix(8 0 0 -8 454.9907 4941)">
		<stop  offset="0" style="stop-color:#006DF0"/>
		<stop  offset="1" style="stop-color:#00E7F0"/>
	</linearGradient>
	<path style="fill:url(#SVGID_6_);" d="M104.369,261.072l-27.72,16c-3.841,2.183-5.185,7.067-3.002,10.908
		c2.183,3.841,7.067,5.185,10.908,3.002c0.031-0.018,0.062-0.036,0.093-0.054l27.72-16c3.841-2.183,5.185-7.067,3.002-10.908
		c-2.183-3.841-7.067-5.185-10.908-3.002C104.431,261.036,104.4,261.054,104.369,261.072z"/>
	
		<linearGradient id="SVGID_7_" gradientUnits="userSpaceOnUse" x1="-8.693" y1="560.395" x2="-8.693" y2="625.968" gradientTransform="matrix(8 0 0 -8 454.9907 4941)">
		<stop  offset="0" style="stop-color:#006DF0"/>
		<stop  offset="1" style="stop-color:#00E7F0"/>
	</linearGradient>
	<path style="fill:url(#SVGID_7_);" d="M403.353,277.072l-27.72-16c-3.811-2.235-8.713-0.957-10.948,2.854
		c-2.235,3.811-0.957,8.713,2.854,10.948c0.031,0.018,0.062,0.036,0.093,0.054l27.72,16c3.841,2.183,8.725,0.84,10.908-3.002
		C408.424,284.122,407.128,279.286,403.353,277.072z"/>
	
		<linearGradient id="SVGID_8_" gradientUnits="userSpaceOnUse" x1="-5.8737" y1="560.395" x2="-5.8737" y2="625.968" gradientTransform="matrix(8 0 0 -8 454.9907 4941)">
		<stop  offset="0" style="stop-color:#006DF0"/>
		<stop  offset="1" style="stop-color:#00E7F0"/>
	</linearGradient>
	<path style="fill:url(#SVGID_8_);" d="M424.001,184h-32c-4.418,0-8,3.582-8,8s3.582,8,8,8h32c4.418,0,8-3.582,8-8
		S428.42,184,424.001,184z"/>
	
		<linearGradient id="SVGID_9_" gradientUnits="userSpaceOnUse" x1="-8.689" y1="560.395" x2="-8.689" y2="625.968" gradientTransform="matrix(8 0 0 -8 454.9907 4941)">
		<stop  offset="0" style="stop-color:#006DF0"/>
		<stop  offset="1" style="stop-color:#00E7F0"/>
	</linearGradient>
	<path style="fill:url(#SVGID_9_);" d="M371.641,124c1.405,0.003,2.785-0.367,4-1.072l27.72-16c3.812-2.234,5.09-7.136,2.856-10.947
		c-2.214-3.776-7.051-5.072-10.856-2.909l-27.72,16c-3.826,2.209-5.137,7.102-2.928,10.928C366.143,122.475,368.784,124,371.641,124
		L371.641,124z"/>
</g>
<linearGradient id="SVGID_10_" gradientUnits="userSpaceOnUse" x1="-16.3722" y1="560.395" x2="-16.3722" y2="625.965" gradientTransform="matrix(8 0 0 -8 454.9907 4941)">
	<stop  offset="0" style="stop-color:#006DF0"/>
	<stop  offset="1" style="stop-color:#00E7F0"/>
</linearGradient>
<path style="fill:url(#SVGID_10_);" d="M312.001,67.296c3.827,2.207,8.72,0.894,10.927-2.934c0-0.001,0.001-0.001,0.001-0.002
	l16-27.704c2.235-3.811,0.957-8.713-2.854-10.948s-8.713-0.957-10.948,2.854c-0.018,0.031-0.036,0.062-0.054,0.093l-16,27.704
	c-2.212,3.824-0.906,8.718,2.919,10.931C311.995,67.292,311.998,67.294,312.001,67.296L312.001,67.296z"/>
<linearGradient id="SVGID_11_" gradientUnits="userSpaceOnUse" x1="-26.8737" y1="560.395" x2="-26.8737" y2="625.968" gradientTransform="matrix(8 0 0 -8 454.9907 4941)">
	<stop  offset="0" style="stop-color:#006DF0"/>
	<stop  offset="1" style="stop-color:#00E7F0"/>
</linearGradient>
<path style="fill:url(#SVGID_11_);" d="M240.001,128c-4.418,0-8,3.582-8,8v16c0,4.418,3.582,8,8,8s8-3.582,8-8v-16
	C248.001,131.582,244.42,128,240.001,128z"/>
<g>
</g>
<g>
</g>
<g>
</g>
<g>
</g>
<g>
</g>
<g>
</g>
<g>
</g>
<g>
</g>
<g>
</g>
<g>
</g>
<g>
</g>
<g>
</g>
<g>
</g>
<g>
</g>
<g>
</g>
</svg>
