<?xml version="1.0" encoding="iso-8859-1"?>
<!-- Generator: Adobe Illustrator 19.0.0, SVG Export Plug-In . SVG Version: 6.00 Build 0)  -->
<svg version="1.1" id="Capa_1" xmlns="http://www.w3.org/2000/svg" xmlns:xlink="http://www.w3.org/1999/xlink" x="0px" y="0px"
	 viewBox="0 0 480.036 480.036" style="enable-background:new 0 0 480.036 480.036;" xml:space="preserve">
<linearGradient id="SVGID_1_" gradientUnits="userSpaceOnUse" x1="-22.8605" y1="618.127" x2="-22.8605" y2="557.035" gradientTransform="matrix(8 0 0 -8 454.8983 4941)">
	<stop  offset="0" style="stop-color:#FFF33B"/>
	<stop  offset="0.04" style="stop-color:#FEE72E"/>
	<stop  offset="0.117" style="stop-color:#FED51B"/>
	<stop  offset="0.196" style="stop-color:#FDCA10"/>
	<stop  offset="0.281" style="stop-color:#FDC70C"/>
	<stop  offset="0.669" style="stop-color:#F3903F"/>
	<stop  offset="0.888" style="stop-color:#ED683C"/>
	<stop  offset="1" style="stop-color:#E93E3A"/>
</linearGradient>
<path style="fill:url(#SVGID_1_);" d="M272.015,448c97.202,0,176-78.798,176-176s-78.798-176-176-176s-176,78.798-176,176
	C96.125,369.156,174.858,447.89,272.015,448z M264.015,112.408V136c0,4.418,3.582,8,8,8s8-3.582,8-8v-23.592
	c81.933,4.17,147.422,69.659,151.592,151.592h-31.592c-4.418,0-8,3.582-8,8s3.582,8,8,8h31.592
	c-4.17,81.932-69.659,147.422-151.592,151.592V408c0-4.418-3.582-8-8-8s-8,3.582-8,8v23.592
	c-81.933-4.17-147.422-69.659-151.592-151.592h23.592c4.418,0,8-3.582,8-8s-3.582-8-8-8h-23.592
	C116.593,182.067,182.082,116.578,264.015,112.408L264.015,112.408z"/>
<g>
	
		<linearGradient id="SVGID_2_" gradientUnits="userSpaceOnUse" x1="-24.36" y1="618.127" x2="-24.36" y2="557.035" gradientTransform="matrix(8 0 0 -8 454.8983 4941)">
		<stop  offset="0" style="stop-color:#FFF33B"/>
		<stop  offset="0.04" style="stop-color:#FEE72E"/>
		<stop  offset="0.117" style="stop-color:#FED51B"/>
		<stop  offset="0.196" style="stop-color:#FDCA10"/>
		<stop  offset="0.281" style="stop-color:#FDC70C"/>
		<stop  offset="0.669" style="stop-color:#F3903F"/>
		<stop  offset="0.888" style="stop-color:#ED683C"/>
		<stop  offset="1" style="stop-color:#E93E3A"/>
	</linearGradient>
	<path style="fill:url(#SVGID_2_);" d="M444.559,156l19.752-19.752c3.123-3.124,3.123-8.188,0-11.312l-45.2-45.2
		c-3.124-3.123-8.188-3.123-11.312,0l-19.784,19.72c-32.002-21.606-69.414-33.819-108-35.256V16h56c4.418,0,8-3.582,8-8
		s-3.582-8-8-8h-128c-4.418,0-8,3.582-8,8s3.582,8,8,8h56v48.272c-71.348,2.724-136.3,41.894-172,103.728h-44c-4.418,0-8,3.582-8,8
		s3.582,8,8,8h48c0.208,0,0.384-0.104,0.592-0.12c2.882,0.037,5.557-1.495,6.984-4c50.899-93.024,167.571-127.174,260.596-76.276
		S491.36,271.176,440.462,364.2S272.89,491.374,179.866,440.476c-32.192-17.614-58.662-44.084-76.276-76.276
		c-1.413-2.515-4.083-4.063-6.968-4.04c-0.208,0-0.392-0.12-0.608-0.12h-48c-4.418,0-8,3.582-8,8s3.582,8,8,8h44
		c57.41,99.444,184.566,133.52,284.011,76.109s133.52-184.566,76.109-284.011C449.749,164.006,447.222,159.958,444.559,156
		L444.559,156z M401.071,109.088l12.384-12.384l33.888,33.888l-12.384,12.384c-9.965-12.562-21.335-23.943-33.888-33.92V109.088z"/>
	
		<linearGradient id="SVGID_3_" gradientUnits="userSpaceOnUse" x1="-51.8605" y1="618.127" x2="-51.8605" y2="557.035" gradientTransform="matrix(8 0 0 -8 454.8983 4941)">
		<stop  offset="0" style="stop-color:#FFF33B"/>
		<stop  offset="0.04" style="stop-color:#FEE72E"/>
		<stop  offset="0.117" style="stop-color:#FED51B"/>
		<stop  offset="0.196" style="stop-color:#FDCA10"/>
		<stop  offset="0.281" style="stop-color:#FDC70C"/>
		<stop  offset="0.669" style="stop-color:#F3903F"/>
		<stop  offset="0.888" style="stop-color:#ED683C"/>
		<stop  offset="1" style="stop-color:#E93E3A"/>
	</linearGradient>
	<path style="fill:url(#SVGID_3_);" d="M80.015,272c0-4.418-3.582-8-8-8h-64c-4.418,0-8,3.582-8,8s3.582,8,8,8h64
		C76.433,280,80.015,276.418,80.015,272z"/>
	
		<linearGradient id="SVGID_4_" gradientUnits="userSpaceOnUse" x1="-50.3605" y1="618.127" x2="-50.3605" y2="557.035" gradientTransform="matrix(8 0 0 -8 454.8983 4941)">
		<stop  offset="0" style="stop-color:#FFF33B"/>
		<stop  offset="0.04" style="stop-color:#FEE72E"/>
		<stop  offset="0.117" style="stop-color:#FED51B"/>
		<stop  offset="0.196" style="stop-color:#FDCA10"/>
		<stop  offset="0.281" style="stop-color:#FDC70C"/>
		<stop  offset="0.669" style="stop-color:#F3903F"/>
		<stop  offset="0.888" style="stop-color:#ED683C"/>
		<stop  offset="1" style="stop-color:#E93E3A"/>
	</linearGradient>
	<path style="fill:url(#SVGID_4_);" d="M24.015,232h56c4.418,0,8-3.582,8-8s-3.582-8-8-8h-56c-4.418,0-8,3.582-8,8
		S19.596,232,24.015,232z"/>
	
		<linearGradient id="SVGID_5_" gradientUnits="userSpaceOnUse" x1="-50.3605" y1="618.127" x2="-50.3605" y2="557.035" gradientTransform="matrix(8 0 0 -8 454.8983 4941)">
		<stop  offset="0" style="stop-color:#FFF33B"/>
		<stop  offset="0.04" style="stop-color:#FEE72E"/>
		<stop  offset="0.117" style="stop-color:#FED51B"/>
		<stop  offset="0.196" style="stop-color:#FDCA10"/>
		<stop  offset="0.281" style="stop-color:#FDC70C"/>
		<stop  offset="0.669" style="stop-color:#F3903F"/>
		<stop  offset="0.888" style="stop-color:#ED683C"/>
		<stop  offset="1" style="stop-color:#E93E3A"/>
	</linearGradient>
	<path style="fill:url(#SVGID_5_);" d="M88.015,320c0-4.418-3.582-8-8-8h-56c-4.418,0-8,3.582-8,8s3.582,8,8,8h56
		C84.433,328,88.015,324.418,88.015,320z"/>
	
		<linearGradient id="SVGID_6_" gradientUnits="userSpaceOnUse" x1="-21.239" y1="618.127" x2="-21.239" y2="557.035" gradientTransform="matrix(8 0 0 -8 454.8983 4941)">
		<stop  offset="0" style="stop-color:#FFF33B"/>
		<stop  offset="0.04" style="stop-color:#FEE72E"/>
		<stop  offset="0.117" style="stop-color:#FED51B"/>
		<stop  offset="0.196" style="stop-color:#FDCA10"/>
		<stop  offset="0.281" style="stop-color:#FDC70C"/>
		<stop  offset="0.669" style="stop-color:#F3903F"/>
		<stop  offset="0.888" style="stop-color:#ED683C"/>
		<stop  offset="1" style="stop-color:#E93E3A"/>
	</linearGradient>
	<path style="fill:url(#SVGID_6_);" d="M250.359,325.656c3.124,3.123,8.188,3.123,11.312,0l111.2-111.2
		c3.069-3.178,2.982-8.243-0.196-11.312c-3.1-2.994-8.015-2.994-11.116,0L256.015,308.688l-47.6-47.6
		c-3.178-3.069-8.243-2.982-11.312,0.196c-2.994,3.1-2.994,8.015,0,11.116L250.359,325.656z"/>
</g>
<g>
</g>
<g>
</g>
<g>
</g>
<g>
</g>
<g>
</g>
<g>
</g>
<g>
</g>
<g>
</g>
<g>
</g>
<g>
</g>
<g>
</g>
<g>
</g>
<g>
</g>
<g>
</g>
<g>
</g>
</svg>
