<svg height="512pt" viewBox="0 -86 512 512" width="512pt" xmlns="http://www.w3.org/2000/svg"><path d="m473.832031 340.613281c21.078125 0 38.167969-17.089843 38.167969-38.167969v-265.117187c0-12.816406-10.390625-23.207031-23.207031-23.207031h-465.585938c-12.816406.003906-23.207031 10.394531-23.207031 23.207031v265.117187c0 21.078126 17.089844 38.167969 38.167969 38.167969zm0 0" fill="#506366"/><path d="m0 37.328125v265.117187c0 21.078126 17.089844 38.167969 38.167969 38.167969h217.832031v-326.488281h-232.792969c-12.816406 0-23.207031 10.390625-23.207031 23.203125zm0 0" fill="#3a484a"/><path d="m464.914062 0h-417.828124c-11.503907 0-20.828126 9.324219-20.828126 20.824219v270.667969c0 11.503906 9.324219 20.828124 20.828126 20.828124h417.828124c11.503907 0 20.828126-9.324218 20.828126-20.828124v-270.664063c0-11.503906-9.324219-20.828125-20.828126-20.828125zm0 0" fill="#efedee"/><path d="m256 312.320312h-208.914062c-11.503907 0-20.828126-9.324218-20.828126-20.828124v-270.664063c0-11.503906 9.324219-20.828125 20.828126-20.828125h208.914062zm0 0" fill="#d2d2d2"/><path d="m380.335938 9.464844c-6.0625-6.0625-14.277344-9.464844-22.847657-9.464844 7.390625 0 13.382813 5.992188 13.382813 13.382812v82.9375c0 10.246094 8.304687 18.550782 18.550781 18.550782h82.933594c7.394531 0 13.386719 5.992187 13.386719 13.382812 0-8.570312-3.40625-16.789062-9.464844-22.847656zm0 0" fill="#f5f4f5"/><path d="m464.914062 0h-107.421874c8.566406 0 16.785156 3.40625 22.84375 9.464844l95.941406 95.941406c6.058594 6.058594 9.464844 14.277344 9.464844 22.847656v-107.425781c0-11.503906-9.324219-20.828125-20.828126-20.828125zm0 0" fill="#d2d2d2"/><g fill="#b2b2b2"><path d="m208.1875 71.507812h-134.113281c-4.144531 0-7.5-3.355468-7.5-7.5 0-4.140624 3.355469-7.5 7.5-7.5h134.113281c4.140625 0 7.5 3.359376 7.5 7.5 0 4.144532-3.359375 7.5-7.5 7.5zm0 0"/><path d="m208.1875 132.941406h-134.113281c-4.144531 0-7.5-3.355468-7.5-7.5 0-4.140625 3.355469-7.5 7.5-7.5h134.113281c4.140625 0 7.5 3.359375 7.5 7.5 0 4.144532-3.359375 7.5-7.5 7.5zm0 0"/><path d="m208.1875 194.378906h-134.113281c-4.144531 0-7.5-3.359375-7.5-7.5 0-4.144531 3.355469-7.5 7.5-7.5h134.113281c4.140625 0 7.5 3.355469 7.5 7.5 0 4.140625-3.359375 7.5-7.5 7.5zm0 0"/><path d="m208.1875 255.8125h-134.113281c-4.144531 0-7.5-3.359375-7.5-7.5 0-4.144531 3.355469-7.5 7.5-7.5h134.113281c4.140625 0 7.5 3.355469 7.5 7.5 0 4.140625-3.359375 7.5-7.5 7.5zm0 0"/></g><path d="m437.929688 194.378906h-134.117188c-4.140625 0-7.5-3.359375-7.5-7.5 0-4.144531 3.359375-7.5 7.5-7.5h134.113281c4.144531 0 7.5 3.355469 7.5 7.5 0 4.140625-3.355469 7.5-7.496093 7.5zm0 0" fill="#d2d2d2"/><path d="m437.929688 255.8125h-134.117188c-4.140625 0-7.5-3.359375-7.5-7.5 0-4.144531 3.359375-7.5 7.5-7.5h134.113281c4.144531 0 7.5 3.355469 7.5 7.5 0 4.140625-3.355469 7.5-7.496093 7.5zm0 0" fill="#d2d2d2"/></svg>