<?xml version="1.0" encoding="iso-8859-1"?>
<!-- Generator: Adobe Illustrator 19.0.0, SVG Export Plug-In . SVG Version: 6.00 Build 0)  -->
<svg version="1.1" id="Capa_1" xmlns="http://www.w3.org/2000/svg" xmlns:xlink="http://www.w3.org/1999/xlink" x="0px" y="0px"
	 viewBox="0 0 512 512" style="enable-background:new 0 0 512 512;" xml:space="preserve">
<path style="fill:#DCDDDD;" d="M159.678,241.062H62.294c-4.267,0-7.726-3.459-7.726-7.726v-84.99c0-4.267,3.459-7.726,7.726-7.726
	s7.726,3.459,7.726,7.726v77.264h89.658c4.267,0,7.726,3.459,7.726,7.726C167.404,237.603,163.945,241.062,159.678,241.062z"/>
<path style="fill:#FF395E;" d="M356.443,97.465v317.069c0,8.592-6.974,15.566-15.566,15.566H170.093
	c-8.592,0-15.566-6.974-15.566-15.566V97.465c0-8.592,6.974-15.566,15.566-15.566h170.783
	C349.468,81.899,356.443,88.874,356.443,97.465z"/>
<path style="fill:#B12E65;" d="M244.153,414.535V97.465c0-8.592,6.974-15.566,15.566-15.566h-89.626
	c-8.592,0-15.566,6.974-15.566,15.566v317.069c0,8.592,6.974,15.566,15.566,15.566h89.626
	C251.127,430.101,244.153,423.126,244.153,414.535z"/>
<rect x="154.527" y="138.961" style="fill:#8ACAEB;" width="201.915" height="225.208"/>
<rect x="154.527" y="138.961" style="fill:#8BB1EA;" width="89.626" height="225.208"/>
<g>
	<path style="fill:#B12E65;" d="M274.028,385.803c6.263,0,11.332,5.069,11.332,11.332c0,3.132-1.267,5.965-3.317,8.015
		s-4.883,3.317-8.015,3.317h-35.026c-6.264,0-11.332-5.069-11.332-11.332c0-3.132,1.267-5.965,3.317-8.015s4.883-3.317,8.015-3.317
		H274.028z"/>
	<path style="fill:#B12E65;" d="M271.968,119.501h-65.932c-4.267,0-7.726-3.459-7.726-7.726s3.459-7.726,7.726-7.726h65.932
		c4.267,0,7.726,3.459,7.726,7.726S276.235,119.501,271.968,119.501z"/>
	<path style="fill:#B12E65;" d="M306.994,119.501h-11.332c-4.267,0-7.726-3.459-7.726-7.726s3.459-7.726,7.726-7.726h11.332
		c4.267,0,7.726,3.459,7.726,7.726S311.261,119.501,306.994,119.501z"/>
</g>
<path style="fill:#DCDDDD;" d="M432.674,352.322c-1.836,0-3.678-0.65-5.153-1.972l-130.833-88.596
	c-1.653-1.481-2.59-3.604-2.57-5.823c0.02-2.22,0.993-4.325,2.672-5.776l128.773-85.505c3.23-2.791,8.108-2.436,10.898,0.791
	c2.791,3.228,2.436,8.108-0.791,10.898l-122.132,79.763l124.294,82.737c3.178,2.847,3.447,7.732,0.6,10.911
	C436.905,351.454,434.794,352.322,432.674,352.322z"/>
<circle style="fill:#7CA1D8;" cx="255.485" cy="251.879" r="66.962"/>
<path style="fill:#FFFFFF;" d="M282.064,242.299c7.335,0,13.289,5.954,13.289,13.289s-5.954,13.289-13.289,13.289h-53.157
	c-7.335,0-13.289-5.954-13.289-13.289c0-7.335,5.954-13.289,13.289-13.289h4.172c2.4-10.158,11.517-17.719,22.406-17.719
	c10.889,0,20.006,7.562,22.406,17.719L282.064,242.299L282.064,242.299z"/>
<g>
	<path style="fill:#DCDDDD;" d="M466.672,306.994c-4.267,0-7.726-3.459-7.726-7.726v-83.445c0-4.267,3.459-7.726,7.726-7.726
		c4.267,0,7.726,3.459,7.726,7.726v83.445C474.398,303.535,470.939,306.994,466.672,306.994z"/>
	<path style="fill:#DCDDDD;" d="M32.966,355.412c-4.267,0-7.726-3.459-7.726-7.726v-114.35c0-4.267,3.459-7.726,7.726-7.726h28.845
		c4.267,0,7.726,3.459,7.726,7.726c0,4.267-3.459,7.726-7.726,7.726H40.692v106.624C40.692,351.953,37.233,355.412,32.966,355.412z"
		/>
</g>
<path style="fill:#7DBFEC;" d="M32.966,335.324c18.203,0,32.966,14.762,32.966,32.966s-14.762,32.966-32.966,32.966
	S0,386.493,0,368.29S14.762,335.324,32.966,335.324z"/>
<path style="fill:#FF395E;" d="M112.29,118.316v29.154c0,3.039-2.472,5.511-5.511,5.511H5.511c-3.039,0-5.511-2.472-5.511-5.511
	v-29.154c0-3.039,2.472-5.511,5.511-5.511h101.267C109.817,112.805,112.29,115.277,112.29,118.316z"/>
<circle style="fill:#C5D65C;" cx="466.672" cy="170.495" r="45.328"/>
<circle style="fill:#F3D064;" cx="466.672" cy="344.596" r="45.328"/>
<g>
	<path style="fill:#FFFFFF;" d="M482.125,164.953c4.265,0,7.726,3.451,7.726,7.726c0,4.265-3.461,7.726-7.726,7.726h-30.905
		c-4.265,0-7.726-3.461-7.726-7.726c0-4.275,3.461-7.726,7.726-7.726h2.421c1.401-5.913,6.696-10.302,13.032-10.302
		c6.336,0,11.631,4.389,13.032,10.302H482.125z"/>
	<path style="fill:#FFFFFF;" d="M482.125,339.053c4.265,0,7.726,3.451,7.726,7.726c0,4.265-3.461,7.726-7.726,7.726h-30.905
		c-4.265,0-7.726-3.461-7.726-7.726c0-4.275,3.461-7.726,7.726-7.726h2.421c1.401-5.913,6.696-10.302,13.032-10.302
		c6.336,0,11.631,4.389,13.032,10.302H482.125z"/>
</g>
<g>
</g>
<g>
</g>
<g>
</g>
<g>
</g>
<g>
</g>
<g>
</g>
<g>
</g>
<g>
</g>
<g>
</g>
<g>
</g>
<g>
</g>
<g>
</g>
<g>
</g>
<g>
</g>
<g>
</g>
</svg>
