<?xml version="1.0" encoding="iso-8859-1"?>
<!-- Generator: Adobe Illustrator 19.0.0, SVG Export Plug-In . SVG Version: 6.00 Build 0)  -->
<svg version="1.1" id="Capa_1" xmlns="http://www.w3.org/2000/svg" xmlns:xlink="http://www.w3.org/1999/xlink" x="0px" y="0px"
	 viewBox="0 0 512 512" style="enable-background:new 0 0 512 512;" xml:space="preserve">
<g>
	<rect x="201.254" y="121.986" style="fill:#656572;" width="23.647" height="58.294"/>
	<rect x="256.772" y="121.986" style="fill:#656572;" width="23.647" height="58.294"/>
	<rect x="312.29" y="121.986" style="fill:#656572;" width="23.647" height="58.294"/>
	<rect x="367.808" y="121.986" style="fill:#656572;" width="23.647" height="58.294"/>
	<rect x="201.254" y="48.805" style="fill:#656572;" width="23.647" height="58.294"/>
	<rect x="256.772" y="48.805" style="fill:#656572;" width="23.647" height="58.294"/>
	<rect x="312.29" y="48.805" style="fill:#656572;" width="23.647" height="58.294"/>
	<rect x="367.808" y="48.805" style="fill:#656572;" width="23.647" height="58.294"/>
</g>
<g>
	<rect x="201.254" y="121.986" style="fill:#585868;" width="12.851" height="58.293"/>
	<rect x="256.772" y="121.986" style="fill:#585868;" width="12.851" height="58.293"/>
	<rect x="312.29" y="121.986" style="fill:#585868;" width="12.851" height="58.293"/>
	<rect x="367.808" y="121.986" style="fill:#585868;" width="12.851" height="58.293"/>
	<rect x="201.254" y="48.805" style="fill:#585868;" width="12.851" height="58.293"/>
	<rect x="256.772" y="48.805" style="fill:#585868;" width="12.851" height="58.293"/>
	<rect x="312.29" y="48.805" style="fill:#585868;" width="12.851" height="58.293"/>
	<rect x="367.808" y="48.805" style="fill:#585868;" width="12.851" height="58.293"/>
</g>
<g>
	<path style="fill:#4B4B5B;" d="M361.639,57.112V45.199c0-10.063,8.234-18.634,18.297-18.466c9.78,0.163,17.687,8.17,17.687,17.99
		v12.389c0,3.946-3.199,7.145-7.145,7.145h-21.693C364.839,64.257,361.639,61.058,361.639,57.112z"/>
	<path style="fill:#4B4B5B;" d="M306.121,57.112V35.946c0-10.063,8.234-18.634,18.297-18.466c9.78,0.163,17.687,8.17,17.687,17.99
		v21.642c0,3.946-3.199,7.145-7.145,7.145h-21.693C309.321,64.257,306.121,61.058,306.121,57.112z"/>
	<path style="fill:#4B4B5B;" d="M250.603,57.112V18.468c0-10.063,8.234-18.634,18.297-18.466c9.78,0.163,17.687,8.171,17.687,17.99
		v39.12c0,3.946-3.199,7.145-7.145,7.145h-21.693C253.803,64.257,250.603,61.058,250.603,57.112z"/>
	<path style="fill:#4B4B5B;" d="M195.085,57.626v-21.68c0-10.063,8.234-18.634,18.297-18.466c9.78,0.163,17.687,8.17,17.687,17.99
		v22.156c0,3.946-3.199,7.145-7.145,7.145H202.23C198.285,64.771,195.085,61.572,195.085,57.626z"/>
	<path style="fill:#4B4B5B;" d="M203.694,136.739c-4.747,0-8.609-3.863-8.609-8.609v-28.018c0-4.747,3.862-8.609,8.609-8.609h18.766
		c4.747,0,8.609,3.863,8.609,8.609v28.018c0,4.747-3.862,8.609-8.609,8.609H203.694z"/>
	<path style="fill:#4B4B5B;" d="M258.915,136.588c-2.512,0-4.887-1.148-6.446-3.117l0,0c-1.203-1.519-1.865-3.415-1.865-5.341
		v-28.018c0-4.755,3.854-8.609,8.609-8.609h18.765c4.755,0,8.609,3.854,8.609,8.609v28.018c0,1.926-0.663,3.824-1.865,5.341l0,0
		c-1.56,1.969-3.935,3.117-6.446,3.117H258.915z"/>
	<path style="fill:#4B4B5B;" d="M314.435,136.588c-2.526,0-4.912-1.161-6.472-3.149l0,0c-1.187-1.513-1.841-3.399-1.841-5.31
		v-28.017c0-4.755,3.854-8.609,8.609-8.609h18.765c4.755,0,8.609,3.854,8.609,8.609v28.018c0,1.911-0.654,3.797-1.841,5.31l0,0
		c-1.56,1.987-3.945,3.149-6.472,3.149h-19.357V136.588z"/>
	<path style="fill:#4B4B5B;" d="M369.953,136.588c-2.526,0-4.912-1.161-6.472-3.149l0,0c-1.187-1.513-1.841-3.399-1.841-5.31
		v-28.017c0-4.755,3.854-8.609,8.609-8.609h18.765c4.755,0,8.609,3.854,8.609,8.609v28.018c0,1.911-0.654,3.797-1.841,5.31l0,0
		c-1.56,1.987-3.945,3.149-6.472,3.149h-19.357V136.588z"/>
</g>
<g>
	<path style="fill:#3B3B4C;" d="M379.631,57.112V45.199c0-6.712,3.673-12.742,9.098-15.977c-2.591-1.527-5.587-2.436-8.792-2.489
		c-10.062-0.169-18.297,8.402-18.297,18.466v11.913c0,3.946,3.199,7.145,7.145,7.145h17.992
		C382.831,64.257,379.631,61.059,379.631,57.112z"/>
	<path style="fill:#3B3B4C;" d="M324.113,57.112V35.946c0-6.712,3.673-12.742,9.098-15.977c-2.591-1.527-5.587-2.436-8.792-2.489
		c-10.062-0.169-18.297,8.402-18.297,18.466v21.166c0,3.946,3.199,7.145,7.145,7.145h17.992
		C327.313,64.257,324.113,61.059,324.113,57.112z"/>
	<path style="fill:#3B3B4C;" d="M268.595,57.112V18.468c0-6.712,3.673-12.742,9.098-15.977c-2.591-1.527-5.587-2.436-8.792-2.489
		c-10.062-0.169-18.297,8.402-18.297,18.466v38.644c0,3.946,3.199,7.145,7.145,7.145h17.992
		C271.795,64.257,268.595,61.059,268.595,57.112z"/>
	<path style="fill:#3B3B4C;" d="M213.077,57.626v-21.68c0-6.712,3.673-12.742,9.098-15.977c-2.591-1.527-5.587-2.436-8.792-2.489
		c-10.062-0.169-18.297,8.402-18.297,18.466v21.68c0,3.946,3.199,7.145,7.145,7.145h17.992
		C216.276,64.771,213.077,61.573,213.077,57.626z"/>
	<path style="fill:#3B3B4C;" d="M213.077,128.13v-28.018c0-4.747,3.862-8.609,8.609-8.609h-17.992c-4.747,0-8.609,3.863-8.609,8.609
		v28.018c0,4.747,3.862,8.609,8.609,8.609h17.992C216.939,136.739,213.077,132.877,213.077,128.13z"/>
	<path style="fill:#3B3B4C;" d="M270.46,133.471c-1.203-1.519-1.865-3.415-1.865-5.341v-28.018c0-4.755,3.854-8.609,8.609-8.609
		h-17.992c-4.755,0-8.609,3.854-8.609,8.609v28.018c0,1.926,0.663,3.824,1.865,5.341c1.56,1.97,3.935,3.117,6.446,3.117h17.992
		C274.395,136.588,272.021,135.441,270.46,133.471z"/>
	<path style="fill:#3B3B4C;" d="M325.954,133.44c-1.187-1.513-1.841-3.399-1.841-5.31v-28.018c0-4.755,3.854-8.609,8.609-8.609
		h-17.992c-4.755,0-8.609,3.854-8.609,8.609v28.018c0,1.911,0.654,3.797,1.841,5.31c1.56,1.987,3.945,3.149,6.472,3.149h17.992
		C329.899,136.588,327.514,135.427,325.954,133.44z"/>
	<path style="fill:#3B3B4C;" d="M381.473,133.44c-1.187-1.513-1.841-3.399-1.841-5.31v-28.018c0-4.755,3.854-8.609,8.609-8.609
		h-17.992c-4.755,0-8.609,3.854-8.609,8.609v28.018c0,1.911,0.654,3.797,1.841,5.31c1.56,1.987,3.945,3.149,6.472,3.149h17.992
		C385.417,136.588,383.032,135.427,381.473,133.44z"/>
</g>
<path style="fill:#656572;" d="M120.033,171.602h23.647v47.786l-8.758-0.993c-0.334-0.039-0.669-0.07-1.009-0.07
	c-1.229,0-2.454,0.265-3.642,0.79l-10.238,4.515V171.602z"/>
<path style="fill:#585868;" d="M131.856,171.602h-11.823v52.027l10.238-4.515c0.522-0.231,1.052-0.402,1.585-0.533V171.602z"/>
<path style="fill:#4B4B5B;" d="M113.864,179.886v-24.679c0-10.063,8.234-18.634,18.297-18.466c9.78,0.163,17.687,8.17,17.687,17.99
	v25.155c0,2.29-1.856,4.146-4.146,4.146H118.01C115.72,184.033,113.864,182.177,113.864,179.886z"/>
<path style="fill:#3B3B4C;" d="M130.845,179.886v-24.679c0-6.916,3.889-13.126,9.588-16.28c-2.468-1.346-5.28-2.136-8.272-2.186
	c-10.062-0.169-18.297,8.402-18.297,18.466v24.679c0,2.29,1.856,4.146,4.145,4.146h16.981
	C132.701,184.033,130.845,182.176,130.845,179.886z"/>
<polygon style="fill:#656572;" points="135.082,239.089 148.343,221.766 171.483,236.315 157.185,255.052 "/>
<path style="fill:#585868;" d="M150.089,222.863L150.089,222.863l-1.746-1.098l-13.261,17.323l22.102,15.963l6.918-9.065
	l-11.876-8.578C147.545,234.029,146.579,227.45,150.089,222.863z"/>
<polygon style="fill:#656572;" points="223.327,474.474 232.556,316.599 358.097,316.599 367.325,474.474 "/>
<path style="fill:#595966;" d="M358.097,316.598H232.556l-1.891,32.339l34.494,21.77c8.986,5.672,19.4,8.67,30.116,8.67
	c0.001,0,0,0,0.001,0c10.745,0,21.184-3.014,30.187-8.715l34.516-21.854L358.097,316.598z"/>
<polygon style="fill:#585866;" points="232.556,316.598 223.327,474.474 289.809,474.474 299.037,316.598 "/>
<path style="fill:#4C4C5B;" d="M265.159,370.708c8.986,5.672,19.4,8.67,30.116,8.67c0.001,0,0,0,0.001,0
	c0.031,0,0.061-0.001,0.091-0.001l3.669-62.778h-66.482l-1.891,32.339L265.159,370.708z"/>
<path style="fill:#565663;" d="M319.587,482.185c-4.259,0-7.711-3.451-7.711-7.711v-34.956c0-4.259,3.451-7.711,7.711-7.711h8.124
	v-20.048c0-4.259,3.451-7.711,7.711-7.711c4.259,0,7.711,3.451,7.711,7.711v27.759c0,4.259-3.451,7.711-7.711,7.711h-8.124v27.245
	C327.298,478.734,323.846,482.185,319.587,482.185z"/>
<path style="fill:#4D4D5B;" d="M261.398,415.358c-4.258,0-7.711-3.451-7.711-7.711v-22.618c0-4.259,3.452-7.711,7.711-7.711h6.832
	v-31.679c0-4.259,3.452-7.711,7.711-7.711c4.258,0,7.711,3.451,7.711,7.711v39.39c0,4.259-3.452,7.711-7.711,7.711h-6.832v14.908
	C269.109,411.906,265.657,415.358,261.398,415.358z"/>
<path style="fill:#4B4B5B;" d="M221.302,512c-10.488,0-19.02-8.532-19.02-19.02s8.532-19.02,19.02-19.02H369.35
	c10.488,0,19.02,8.532,19.02,19.02S379.838,512,369.35,512H221.302z"/>
<path style="fill:#40404F;" d="M267.503,492.98c0-10.488,8.532-19.02,19.02-19.02h-65.221c-10.488,0-19.02,8.532-19.02,19.02
	s8.532,19.02,19.02,19.02h65.221C276.036,512,267.503,503.468,267.503,492.98z"/>
<path style="fill:#4B4B5B;" d="M161.156,282.106l-0.168-0.124c-2.993-2.222-5.384-5.201-6.712-8.684
	c-2.616-6.867-1.528-14.127,2.727-19.703l15.826-20.737c1.933-2.532,5.537-3.052,8.107-1.168l12.607,9.246v62.808L161.156,282.106z"
	/>
<path style="fill:#3B3B4C;" d="M174.076,257.591l-0.168-0.124c-2.993-2.223-5.384-5.201-6.712-8.685
	c-0.847-2.224-1.3-4.489-1.388-6.726l-8.806,11.538c-4.253,5.575-5.341,12.836-2.726,19.703c1.326,3.483,3.719,6.463,6.712,8.684
	l0.168,0.124l32.387,21.638v-33.146L174.076,257.591z"/>
<path style="fill:#4B4B5B;" d="M295.276,357.791c-10.716,0-21.131-2.998-30.116-8.67l-72.644-45.848V180.765
	c0-8.403,6.836-15.239,15.239-15.239h175.144c8.403,0,15.239,6.836,15.239,15.239v97.393c0,15.595-7.865,29.885-21.041,38.227
	l-51.632,32.691C316.462,354.776,306.021,357.791,295.276,357.791C295.276,357.791,295.277,357.791,295.276,357.791z"/>
<path style="fill:#404051;" d="M285.045,303.273V180.765c0-8.403,6.836-15.239,15.239-15.239h-92.53
	c-8.403,0-15.239,6.836-15.239,15.239v122.508l72.644,45.848c8.986,5.672,19.4,8.67,30.116,8.67c0.001,0,0,0,0.001,0
	c10.745,0,21.184-3.014,30.187-8.715l16.051-10.163L285.045,303.273z"/>
<path style="fill:#656572;" d="M295.277,331.099c-5.621,0-11.102-1.585-15.851-4.584l-55.889-35.272
	c-2.67-1.685-4.289-4.622-4.289-7.78v-78.392c0-7.076,5.737-12.813,12.813-12.813h126.534c7.076,0,12.813,5.737,12.813,12.813
	v73.087c0,6.38-3.218,12.228-8.609,15.643l-51.632,32.691C306.405,329.505,300.911,331.099,295.277,331.099z"/>
<path style="fill:#E0E0E3;" d="M295.326,298.153c-22.392,0-40.61-18.218-40.61-40.61c0-22.392,18.218-40.61,40.61-40.61
	c22.392,0,40.61,18.218,40.61,40.61C335.936,279.935,317.718,298.153,295.326,298.153z"/>
<path style="fill:#ED2E4E;" d="M295.326,271.422c-7.653,0-13.88-6.226-13.88-13.88c0-7.653,6.226-13.88,13.88-13.88
	c7.653,0,13.88,6.226,13.88,13.88C309.206,265.196,302.979,271.422,295.326,271.422z"/>
<path style="fill:#4D4D5B;" d="M264.483,457.51h17.478c4.258,0,7.711-3.451,7.711-7.711c0-4.259-3.452-7.711-7.711-7.711h-9.767
	v-2.251c0-4.259-3.452-7.711-7.711-7.711h-38.681l-0.902,15.422h31.87v2.251C256.772,454.059,260.224,457.51,264.483,457.51z"/>
<path style="fill:#4B4B5B;" d="M133.912,240.579c-8.787,0-15.936-7.148-15.936-15.936c0-8.787,7.148-15.936,15.936-15.936
	s15.936,7.148,15.936,15.936C149.848,233.43,142.7,240.579,133.912,240.579z"/>
<path style="fill:#404051;" d="M130.178,219.544c0-4.174,1.625-7.966,4.26-10.81c-0.177-0.005-0.349-0.027-0.526-0.027
	c-8.787,0-15.936,7.148-15.936,15.936c0,8.787,7.148,15.936,15.936,15.936c4.613,0,8.763-1.982,11.675-5.126
	C137.045,235.172,130.178,228.153,130.178,219.544z"/>
<g>
</g>
<g>
</g>
<g>
</g>
<g>
</g>
<g>
</g>
<g>
</g>
<g>
</g>
<g>
</g>
<g>
</g>
<g>
</g>
<g>
</g>
<g>
</g>
<g>
</g>
<g>
</g>
<g>
</g>
</svg>
