<?xml version="1.0" encoding="iso-8859-1"?>
<!-- Generator: Adobe Illustrator 19.0.0, SVG Export Plug-In . SVG Version: 6.00 Build 0)  -->
<svg version="1.1" id="Capa_1" xmlns="http://www.w3.org/2000/svg" xmlns:xlink="http://www.w3.org/1999/xlink" x="0px" y="0px"
	 viewBox="0 0 512 512" style="enable-background:new 0 0 512 512;" xml:space="preserve">
<path style="fill:#FFD681;" d="M392.117,206.788c0,35.533-13.441,67.909-35.488,92.249c-7.789,10.579-15.507,21.063-23.296,31.642
	c-21.183,37.106-31.166,73.722-31.166,73.722h-92.334c0,0-9.982-36.611-31.162-73.715c-7.835-10.632-15.599-21.167-23.435-31.798
	c-21.967-24.323-35.353-56.64-35.353-92.1c0-75.888,61.317-137.379,136.815-137.001C331.869,70.163,392.117,131.13,392.117,206.788z
	"/>
<path style="fill:#FFBD2A;" d="M256.698,69.786c-5.366-0.027-10.657,0.269-15.863,0.851c68.226,7.597,120.83,65.458,120.829,136.151
	c0,35.533-13.441,67.909-35.488,92.249c-7.789,10.579-15.507,21.063-23.296,31.642c-21.183,37.106-31.166,73.722-31.166,73.722
	h30.453c0,0,9.983-36.616,31.166-73.722c7.789-10.579,15.507-21.063,23.296-31.642c22.047-24.34,35.488-56.716,35.488-92.249
	C392.117,131.13,331.869,70.163,256.698,69.786z"/>
<path style="fill:#A85759;" d="M296.804,512h-81.609c-1.917,0-3.565-1.361-3.928-3.243l-6.022-31.257h101.509l-6.022,31.257
	C300.369,510.639,298.722,512,296.804,512z"/>
<path style="fill:#53575D;" d="M275.964,477.5l-6.647,34.5h27.488c1.917,0,3.565-1.361,3.928-3.243l6.022-31.257H275.964z"/>
<path style="fill:#FF993B;" d="M313.921,481.547H198.079c-2.209,0-4-1.791-4-4v-83.358c0-2.209,1.791-4,4-4H313.92
	c2.209,0,4,1.791,4,4v83.358C317.921,479.756,316.13,481.547,313.921,481.547z"/>
<path style="fill:#FF7B48;" d="M287.468,390.189v91.358h26.453c2.209,0,4-1.791,4-4v-83.358c0-2.209-1.791-4-4-4H287.468z"/>
<g>
	<path style="fill:#FF993B;" d="M256,49.823c-4.143,0-7.5-3.358-7.5-7.5V7.5c0-4.142,3.357-7.5,7.5-7.5s7.5,3.358,7.5,7.5v34.823
		C263.5,46.465,260.143,49.823,256,49.823z"/>
	<path style="fill:#FF993B;" d="M169.413,73.044c-2.592,0-5.113-1.346-6.503-3.752l-17.406-30.158
		c-2.07-3.587-0.841-8.174,2.747-10.245c3.586-2.07,8.173-0.842,10.245,2.747l17.406,30.158c2.07,3.587,0.841,8.174-2.747,10.245
		C171.975,72.72,170.686,73.044,169.413,73.044z"/>
	<path style="fill:#FF993B;" d="M106.008,136.344c-1.273,0-2.563-0.324-3.744-1.007l-30.147-17.412
		c-3.587-2.072-4.815-6.659-2.743-10.246c2.071-3.587,6.659-4.815,10.245-2.744l30.147,17.412c3.587,2.072,4.815,6.659,2.744,10.246
		C111.12,134.999,108.599,136.344,106.008,136.344z"/>
	<path style="fill:#FF993B;" d="M436.126,327c-1.273,0-2.563-0.324-3.744-1.007l-30.147-17.412
		c-3.587-2.072-4.815-6.659-2.744-10.246c2.072-3.588,6.66-4.815,10.246-2.744l30.147,17.412c3.587,2.072,4.815,6.659,2.743,10.246
		C441.238,325.655,438.717,327,436.126,327z"/>
	<path style="fill:#FF993B;" d="M82.812,222.763H48c-4.143,0-7.5-3.358-7.5-7.5s3.357-7.5,7.5-7.5h34.812c4.143,0,7.5,3.358,7.5,7.5
		S86.954,222.763,82.812,222.763z"/>
	<path style="fill:#FF993B;" d="M464,222.763h-34.812c-4.143,0-7.5-3.358-7.5-7.5s3.357-7.5,7.5-7.5H464c4.143,0,7.5,3.358,7.5,7.5
		S468.143,222.763,464,222.763z"/>
	<path style="fill:#FF993B;" d="M75.874,326.56c-2.592,0-5.112-1.345-6.501-3.75c-2.072-3.587-0.844-8.174,2.743-10.246
		l30.147-17.412c3.589-2.072,8.175-0.843,10.246,2.744c2.071,3.587,0.843,8.174-2.744,10.246l-30.147,17.412
		C78.437,326.235,77.146,326.56,75.874,326.56z"/>
	<path style="fill:#FF993B;" d="M405.992,135.904c-2.592,0-5.112-1.345-6.501-3.75c-2.072-3.587-0.844-8.174,2.743-10.246
		l30.147-17.412c3.589-2.071,8.175-0.843,10.245,2.744c2.072,3.587,0.844,8.174-2.743,10.246l-30.147,17.412
		C408.555,135.579,407.265,135.904,405.992,135.904z"/>
	<path style="fill:#FF993B;" d="M342.587,72.281c-1.272,0-2.562-0.324-3.742-1.006c-3.588-2.07-4.817-6.657-2.747-10.245
		l17.406-30.158c2.071-3.588,6.659-4.817,10.245-2.747c3.588,2.07,4.817,6.657,2.747,10.245L349.09,68.529
		C347.7,70.935,345.179,72.281,342.587,72.281z"/>
</g>
<g>
	<path style="fill:#FF5A51;" d="M216.406,253.699c-1.657,0-3.325-0.547-4.714-1.671l-42.634-34.513
		c-1.759-1.424-2.781-3.566-2.781-5.83s1.021-4.405,2.781-5.829l42.634-34.513c3.22-2.606,7.941-2.109,10.548,1.11
		s2.109,7.942-1.11,10.548l-35.433,28.684l35.433,28.683c3.22,2.606,3.717,7.329,1.11,10.548
		C220.759,252.748,218.592,253.698,216.406,253.699z"/>
	<path style="fill:#FF5A51;" d="M295.594,253.699c-2.186,0-4.352-0.951-5.834-2.782c-2.606-3.219-2.109-7.942,1.11-10.548
		l35.433-28.683l-35.433-28.684c-3.22-2.606-3.717-7.329-1.11-10.548c2.605-3.219,7.328-3.718,10.548-1.11l42.634,34.513
		c1.76,1.424,2.781,3.566,2.781,5.829s-1.022,4.405-2.781,5.83l-42.634,34.513C298.919,253.151,297.251,253.698,295.594,253.699z"/>
	<path style="fill:#FF5A51;" d="M232.65,275.017c-0.965,0-1.945-0.187-2.891-0.583c-3.821-1.598-5.624-5.992-4.025-9.813
		l46.693-111.66c1.598-3.822,5.994-5.625,9.813-4.026c3.821,1.598,5.624,5.992,4.025,9.813l-46.693,111.66
		C238.37,273.285,235.584,275.017,232.65,275.017z"/>
	<path style="fill:#FF5A51;" d="M182.913,447.095v-22.453c0-2.209,1.791-4,4-4h138.173c2.209,0,4,1.791,4,4v22.453
		c0,2.209-1.791,4-4,4H186.913C184.704,451.095,182.913,449.304,182.913,447.095z"/>
</g>
<path style="fill:#E75955;" d="M298.634,420.642v30.453h26.453c2.209,0,4-1.791,4-4v-22.453c0-2.209-1.791-4-4-4H298.634z"/>
<g>
</g>
<g>
</g>
<g>
</g>
<g>
</g>
<g>
</g>
<g>
</g>
<g>
</g>
<g>
</g>
<g>
</g>
<g>
</g>
<g>
</g>
<g>
</g>
<g>
</g>
<g>
</g>
<g>
</g>
</svg>
