<?xml version="1.0" encoding="iso-8859-1"?>
<!-- Generator: Adobe Illustrator 19.0.0, SVG Export Plug-In . SVG Version: 6.00 Build 0)  -->
<svg version="1.1" id="Capa_1" xmlns="http://www.w3.org/2000/svg" xmlns:xlink="http://www.w3.org/1999/xlink" x="0px" y="0px"
	 viewBox="0 0 480.483 480.483" style="enable-background:new 0 0 480.483 480.483;" xml:space="preserve">
<path style="fill:#EAB76C;" d="M128.241,136.483c0-22.088,17.912-40,40-40c0-21.272-7.504-45.832-21.152-62.08
	c-30.872,23.368-50.848,60.376-50.848,102.08v24v8C113.913,168.483,128.241,154.155,128.241,136.483z"/>
<path style="fill:#F4D389;" d="M240.241,112.483l72-16c0-3.048-0.096-6.16-0.328-9.304l-7.672-30.696l-12.864-19.304
	c-2.432-2.504-5.112-4.912-8.104-7.184l-27.032-13.512l0.32-0.16c-29.992-10.152-75.496-12.352-144.32,0.16
	c14.104,0,25.808,7.152,34.848,17.92c13.648,16.248,21.152,40.808,21.152,62.08L240.241,112.483z"/>
<path style="fill:#EAB76C;" d="M352.241,136.483c0,17.672,14.328,32,32,32v-8v-24c0-29.336-9.976-56.272-26.568-77.864
	l-45.432,37.864C334.329,96.483,352.241,114.395,352.241,136.483z"/>
<g>
	<path style="fill:#EFECE8;" d="M128.241,216.483c0,8.84,7.16,16,16,16h64c8.84,0,16-7.16,16-16v-40h-96V216.483z"/>
	<path style="fill:#EFECE8;" d="M272.241,232.483h64c8.84,0,16-7.16,16-16v-40h-96v40
		C256.241,225.323,263.401,232.483,272.241,232.483z"/>
</g>
<path style="fill:#86B2BC;" d="M424.241,392.483h-80h-40l-64,32l0,0l-64-32h-40h-80c-26.512,0-48,21.488-48,48v40h464v-40
	C472.241,413.971,450.753,392.483,424.241,392.483z"/>
<path style="fill:#F9EDE0;" d="M240.241,424.483l64-32v-33.44c45.384-7.632,80-47.008,80-94.56v-40h16c17.672,0,32-14.328,32-32
	s-14.328-32-32-32h-16v8c-17.672,0-32-14.328-32-32c0-22.088-17.912-40-40-40l-72,16l-72-16c-22.088,0-40,17.912-40,40
	c0,17.672-14.328,32-32,32v-8h-16c-17.672,0-32,14.328-32,32s14.328,32,32,32h16v40c0,47.552,34.616,86.928,80,94.56v33.44
	L240.241,424.483L240.241,424.483z M256.241,176.483h96v40c0,8.84-7.16,16-16,16h-64c-8.84,0-16-7.16-16-16V176.483z
	 M224.241,216.483c0,8.84-7.16,16-16,16h-64c-8.84,0-16-7.16-16-16v-40h96V216.483z"/>
<polygon style="fill:#EAB76C;" points="283.265,29.995 288.241,32.483 291.377,37.179 304.241,56.483 311.913,87.179 
	312.241,88.483 320.241,88.483 360.241,56.483 328.241,32.483 272.241,8.483 256.561,16.323 256.241,16.483 "/>
<path style="fill:#4B413A;" d="M424.241,384.483h-80h-32v-18.904c45.792-10.88,80-52.024,80-101.096v-32h8c22.056,0,40-17.944,40-40
	s-17.944-40-40-40h-8v-16c0-74.992-61.008-136-136-136h-32v1.016c-30.664-3.384-68.512-1.048-113.432,7.112
	c-4.072,0.736-6.912,4.464-6.536,8.584s3.824,7.288,7.968,7.288c8.848,0,16.52,3.56,23.024,9.232
	c-29.616,25.696-47.024,63.248-47.024,102.768v16h-8c-22.056,0-40,17.944-40,40s17.944,40,40,40h8v32
	c0,49.072,34.208,90.216,80,101.096v18.904h-32h-80c-30.88,0-56,25.128-56,56v40h16v-40c0-22.056,17.944-40,40-40h76.688
	l69.656,69.656c1.504,1.512,3.536,2.344,5.656,2.344c0.152,0,0.296-0.008,0.44-0.016c2.272-0.128,4.384-1.208,5.808-2.984
	l25.752-32.192l25.752,32.192c1.424,1.776,3.528,2.856,5.808,2.984c0.144,0.008,0.288,0.016,0.44,0.016
	c2.12,0,4.152-0.832,5.656-2.344l69.656-69.656h76.688c22.056,0,40,17.944,40,40v40h16v-40
	C480.241,409.611,455.121,384.483,424.241,384.483z M351.265,168.483h-95.024h-32h-95.024l-7.08-1.768
	c8.56-7.344,14.104-18.096,14.104-30.232c0-17.368,13.904-31.544,31.168-31.992l71.096,15.808c1.144,0.248,2.328,0.248,3.472,0
	l71.096-15.808c17.264,0.448,31.168,14.624,31.168,31.992c0,12.136,5.544,22.888,14.104,30.232L351.265,168.483z M344.241,184.483
	v32c0,4.416-3.592,8-8,8h-64c-4.408,0-8-3.584-8-8v-32H344.241z M216.241,184.483v32c0,4.416-3.592,8-8,8h-64c-4.408,0-8-3.584-8-8
	v-32H216.241z M400.241,168.483c13.232,0,24,10.768,24,24s-10.768,24-24,24h-8v-48H400.241z M376.241,159.011
	c-9.288-3.312-16-12.112-16-22.528c0-20.136-12.48-37.392-30.096-44.504l26.072-21.728c12.624,19,20.024,41.76,20.024,66.232
	V159.011z M346.425,57.579l-27.296,22.752c-2.944-22.88-12.264-41.168-28.048-54.336c-2.936-2.456-6.184-4.672-9.568-6.776
	C307.161,24.739,329.721,38.515,346.425,57.579z M280.825,38.275c14.424,12.04,21.984,29.088,23.168,51.848l-63.752,14.168
	l-64.336-14.296c-1.656-25.08-12.656-54.592-32.488-70.336C209.393,10.923,255.537,17.171,280.825,38.275z M145.673,45.979
	c8.12,12.64,12.968,28.864,14.208,43.28c-22.488,3.976-39.64,23.608-39.64,47.224c0,10.416-6.712,19.216-16,22.528v-22.528
	C104.241,101.667,119.617,68.659,145.673,45.979z M80.241,216.483c-13.232,0-24-10.768-24-24s10.768-24,24-24h8v48H80.241z
	 M104.241,264.483v-40v-45.76l16,4v33.76c0,13.232,10.768,24,24,24h64c13.232,0,24-10.768,24-24v-32h16v32c0,13.232,10.768,24,24,24
	h64c13.232,0,24-10.768,24-24v-33.76l16-4v45.76v40c0,43.512-31.776,79.648-73.312,86.672h-0.008
	c-2.544,0.424-4.952,0.736-7.288,0.952c-2.448,0.208-4.896,0.376-7.392,0.376h-96c-2.496,0-4.944-0.168-7.384-0.376
	c-2.336-0.224-4.744-0.528-7.288-0.952h-0.008C136.017,344.131,104.241,307.995,104.241,264.483z M288.241,368.483
	c2.608,0,5.264-0.12,8-0.352v19.408l-56,28l-56-28v-19.408c2.736,0.232,5.392,0.352,8,0.352H288.241z M207.577,452.507
	l-52.024-52.024h18.8l53.456,26.728L207.577,452.507z M272.905,452.507l-20.232-25.296l53.456-26.728h18.8L272.905,452.507z"/>
<g>
</g>
<g>
</g>
<g>
</g>
<g>
</g>
<g>
</g>
<g>
</g>
<g>
</g>
<g>
</g>
<g>
</g>
<g>
</g>
<g>
</g>
<g>
</g>
<g>
</g>
<g>
</g>
<g>
</g>
</svg>
