<?xml version="1.0" encoding="iso-8859-1"?>
<!-- Generator: Adobe Illustrator 19.0.0, SVG Export Plug-In . SVG Version: 6.00 Build 0)  -->
<svg version="1.1" id="Capa_1" xmlns="http://www.w3.org/2000/svg" xmlns:xlink="http://www.w3.org/1999/xlink" x="0px" y="0px"
	 viewBox="0 0 480 480" style="enable-background:new 0 0 480 480;" xml:space="preserve">
<linearGradient id="SVGID_1_" gradientUnits="userSpaceOnUse" x1="-26.8757" y1="558.674" x2="-26.8757" y2="616.605" gradientTransform="matrix(8 0 0 -8 454.999 4941)">
	<stop  offset="0" style="stop-color:#006DF0"/>
	<stop  offset="1" style="stop-color:#00E7F0"/>
</linearGradient>
<path style="fill:url(#SVGID_1_);" d="M256.856,64.96c-78.977-9.356-150.584,47.083-159.94,126.06
	c-5.943,50.169,14.839,99.784,54.764,130.74c10.144,7.607,16.175,19.497,16.32,32.176V408c0.031,19.895,8.261,38.896,22.752,52.528
	c13.29,12.559,30.899,19.53,49.184,19.472c1.6,0,3.2-0.048,4.8-0.152c38.393-3.159,67.785-35.505,67.264-74.024v-51.912
	c0.102-12.595,6.064-24.425,16.128-32c62.924-48.636,74.507-139.073,25.872-201.997C330.323,89.282,295.308,69.474,256.856,64.96
	L256.856,64.96z M296,384H184v-8h112V384z M186.336,424h106.816c-0.856,2.739-1.909,5.413-3.152,8H189.416
	C188.182,429.418,187.152,426.743,186.336,424z M295.936,408H184v-8h112c0,0-0.072,7.272-0.104,8H295.936z M243.76,463.88
	c-15.494,1.098-30.738-4.352-42.024-15.024c-0.296-0.272-0.544-0.576-0.8-0.856h77.672c-9.317,9.351-21.717,14.995-34.888,15.88
	L243.76,463.88z M318.376,309.224c-14.017,10.593-22.292,27.118-22.376,44.688V360H184v-6.064
	c-0.131-17.619-8.448-34.175-22.504-44.8c-55.856-43.331-66.01-123.737-22.679-179.593C163.033,98.327,200.308,80.042,239.816,80
	c5.079,0.004,10.153,0.292,15.2,0.864c70.204,8.295,120.392,71.931,112.097,142.135c-4.033,34.131-21.622,65.207-48.809,86.233
	L318.376,309.224z"/>
<g>
	
		<linearGradient id="SVGID_2_" gradientUnits="userSpaceOnUse" x1="-17.9341" y1="558.674" x2="-17.9341" y2="616.605" gradientTransform="matrix(8 0 0 -8 454.999 4941)">
		<stop  offset="0" style="stop-color:#006DF0"/>
		<stop  offset="1" style="stop-color:#00E7F0"/>
	</linearGradient>
	<path style="fill:url(#SVGID_2_);" d="M282.848,104.448c-4.095-1.659-8.759,0.316-10.418,4.411
		c-1.638,4.045,0.267,8.656,4.282,10.365c31.899,13.137,54.266,42.417,58.552,76.648c0.526,4.387,4.509,7.518,8.896,6.992
		c4.387-0.526,7.518-4.509,6.992-8.896C346.17,154.004,320.078,119.807,282.848,104.448L282.848,104.448z"/>
	
		<linearGradient id="SVGID_3_" gradientUnits="userSpaceOnUse" x1="-26.1063" y1="558.674" x2="-26.1063" y2="616.605" gradientTransform="matrix(8 0 0 -8 454.999 4941)">
		<stop  offset="0" style="stop-color:#006DF0"/>
		<stop  offset="1" style="stop-color:#00E7F0"/>
	</linearGradient>
	<path style="fill:url(#SVGID_3_);" d="M253.24,96.8c-4.395-0.517-8.815-0.784-13.24-0.8c-4.418,0-8,3.582-8,8s3.582,8,8,8
		c3.82,0.001,7.637,0.22,11.432,0.656c0.303,0.032,0.607,0.048,0.912,0.048c4.418-0.026,7.978-3.629,7.952-8.048
		c-0.024-4.035-3.049-7.42-7.056-7.896L253.24,96.8z"/>
	
		<linearGradient id="SVGID_4_" gradientUnits="userSpaceOnUse" x1="-26.8748" y1="558.674" x2="-26.8748" y2="616.605" gradientTransform="matrix(8 0 0 -8 454.999 4941)">
		<stop  offset="0" style="stop-color:#006DF0"/>
		<stop  offset="1" style="stop-color:#00E7F0"/>
	</linearGradient>
	<path style="fill:url(#SVGID_4_);" d="M240,48c4.418,0,8-3.582,8-8V8c0-4.418-3.582-8-8-8s-8,3.582-8,8v32
		C232,44.418,235.582,48,240,48z"/>
	
		<linearGradient id="SVGID_5_" gradientUnits="userSpaceOnUse" x1="-38.8715" y1="558.674" x2="-38.8715" y2="616.605" gradientTransform="matrix(8 0 0 -8 454.999 4941)">
		<stop  offset="0" style="stop-color:#006DF0"/>
		<stop  offset="1" style="stop-color:#00E7F0"/>
	</linearGradient>
	<path style="fill:url(#SVGID_5_);" d="M145.072,67.576c2.184,3.841,7.068,5.184,10.909,3c3.841-2.184,5.184-7.068,3-10.909
		c-0.017-0.031-0.035-0.061-0.053-0.092l-16-27.712c-2.234-3.812-7.136-5.09-10.947-2.856c-3.776,2.214-5.072,7.051-2.909,10.856
		L145.072,67.576z"/>
	
		<linearGradient id="SVGID_6_" gradientUnits="userSpaceOnUse" x1="-47.6599" y1="558.674" x2="-47.6599" y2="616.605" gradientTransform="matrix(8 0 0 -8 454.999 4941)">
		<stop  offset="0" style="stop-color:#006DF0"/>
		<stop  offset="1" style="stop-color:#00E7F0"/>
	</linearGradient>
	<path style="fill:url(#SVGID_6_);" d="M91.576,121.072l-27.712-16c-3.841-2.184-8.725-0.841-10.909,3
		c-2.163,3.805-0.867,8.642,2.909,10.856l27.712,16c3.841,2.184,8.725,0.841,10.909-3C96.648,128.123,95.352,123.286,91.576,121.072
		z"/>
	
		<linearGradient id="SVGID_7_" gradientUnits="userSpaceOnUse" x1="-50.8749" y1="558.674" x2="-50.8749" y2="616.605" gradientTransform="matrix(8 0 0 -8 454.999 4941)">
		<stop  offset="0" style="stop-color:#006DF0"/>
		<stop  offset="1" style="stop-color:#00E7F0"/>
	</linearGradient>
	<path style="fill:url(#SVGID_7_);" d="M72,216c0-4.418-3.582-8-8-8H32c-4.418,0-8,3.582-8,8s3.582,8,8,8h32
		C68.418,224,72,220.418,72,216z"/>
	
		<linearGradient id="SVGID_8_" gradientUnits="userSpaceOnUse" x1="-47.6599" y1="558.674" x2="-47.6599" y2="616.605" gradientTransform="matrix(8 0 0 -8 454.999 4941)">
		<stop  offset="0" style="stop-color:#006DF0"/>
		<stop  offset="1" style="stop-color:#00E7F0"/>
	</linearGradient>
	<path style="fill:url(#SVGID_8_);" d="M83.576,297.072l-27.712,16c-3.841,2.183-5.185,7.067-3.002,10.908
		c2.183,3.841,7.067,5.185,10.908,3.002c0.031-0.018,0.062-0.036,0.093-0.054l27.712-16c3.841-2.183,5.185-7.067,3.002-10.908
		c-2.183-3.841-7.067-5.185-10.908-3.002C83.638,297.036,83.607,297.054,83.576,297.072z"/>
	
		<linearGradient id="SVGID_9_" gradientUnits="userSpaceOnUse" x1="-6.0957" y1="558.674" x2="-6.0957" y2="616.605" gradientTransform="matrix(8 0 0 -8 454.999 4941)">
		<stop  offset="0" style="stop-color:#006DF0"/>
		<stop  offset="1" style="stop-color:#00E7F0"/>
	</linearGradient>
	<path style="fill:url(#SVGID_9_);" d="M424.136,313.072l-27.712-16c-3.811-2.235-8.713-0.957-10.948,2.854
		c-2.235,3.811-0.957,8.713,2.854,10.948c0.031,0.018,0.062,0.036,0.093,0.054l27.712,16c3.841,2.183,8.725,0.84,10.908-3.002
		C429.207,320.122,427.911,315.286,424.136,313.072z"/>
	
		<linearGradient id="SVGID_10_" gradientUnits="userSpaceOnUse" x1="-2.8748" y1="558.674" x2="-2.8748" y2="616.605" gradientTransform="matrix(8 0 0 -8 454.999 4941)">
		<stop  offset="0" style="stop-color:#006DF0"/>
		<stop  offset="1" style="stop-color:#00E7F0"/>
	</linearGradient>
	<path style="fill:url(#SVGID_10_);" d="M448,208h-32c-4.418,0-8,3.582-8,8s3.582,8,8,8h32c4.418,0,8-3.582,8-8S452.418,208,448,208
		z"/>
	
		<linearGradient id="SVGID_11_" gradientUnits="userSpaceOnUse" x1="-6.0917" y1="558.674" x2="-6.0917" y2="616.605" gradientTransform="matrix(8 0 0 -8 454.999 4941)">
		<stop  offset="0" style="stop-color:#006DF0"/>
		<stop  offset="1" style="stop-color:#00E7F0"/>
	</linearGradient>
	<path style="fill:url(#SVGID_11_);" d="M392.432,136c1.404,0,2.784-0.37,4-1.072l27.712-16c3.812-2.234,5.09-7.136,2.856-10.947
		c-2.214-3.776-7.051-5.072-10.856-2.909l-27.712,16c-3.826,2.209-5.137,7.102-2.928,10.928
		C386.934,134.475,389.574,136,392.432,136L392.432,136z"/>
	
		<linearGradient id="SVGID_12_" gradientUnits="userSpaceOnUse" x1="-14.8765" y1="558.674" x2="-14.8765" y2="616.605" gradientTransform="matrix(8 0 0 -8 454.999 4941)">
		<stop  offset="0" style="stop-color:#006DF0"/>
		<stop  offset="1" style="stop-color:#00E7F0"/>
	</linearGradient>
	<path style="fill:url(#SVGID_12_);" d="M324,70.504c3.826,2.209,8.719,0.898,10.928-2.928l16-27.712
		c2.183-3.841,0.84-8.725-3.002-10.908c-3.805-2.163-8.641-0.867-10.854,2.908l-16,27.712C318.863,63.402,320.174,68.295,324,70.504
		L324,70.504z"/>
</g>
<g>
</g>
<g>
</g>
<g>
</g>
<g>
</g>
<g>
</g>
<g>
</g>
<g>
</g>
<g>
</g>
<g>
</g>
<g>
</g>
<g>
</g>
<g>
</g>
<g>
</g>
<g>
</g>
<g>
</g>
</svg>
