<?xml version="1.0" encoding="iso-8859-1"?>
<!-- Generator: Adobe Illustrator 19.0.0, SVG Export Plug-In . SVG Version: 6.00 Build 0)  -->
<svg version="1.1" id="Capa_1" xmlns="http://www.w3.org/2000/svg" xmlns:xlink="http://www.w3.org/1999/xlink" x="0px" y="0px"
	 viewBox="0 0 480 480" style="enable-background:new 0 0 480 480;" xml:space="preserve">
<linearGradient id="SVGID_1_" gradientUnits="userSpaceOnUse" x1="-52.875" y1="556.495" x2="-52.875" y2="619.027" gradientTransform="matrix(8 0 0 -8 595 4941)">
	<stop  offset="0" style="stop-color:#006DF0"/>
	<stop  offset="1" style="stop-color:#00E7F0"/>
</linearGradient>
<path style="fill:url(#SVGID_1_);" d="M308,400.136c-4.418,0-8,3.582-8,8V416H44V64h256v7.36c0,4.418,3.582,8,8,8s8-3.582,8-8V40
	c-0.026-22.08-17.92-39.974-40-40H68C45.92,0.026,28.026,17.92,28,40v400c0.026,22.08,17.92,39.974,40,40h208
	c22.08-0.026,39.974-17.92,40-40v-31.864C316,403.718,312.418,400.136,308,400.136z M68,16h208c13.255,0,24,10.745,24,24v8H44v-8
	C44,26.745,54.745,16,68,16z M276,464H68c-13.255,0-24-10.745-24-24v-8h256v8C300,453.255,289.255,464,276,464z"/>
<linearGradient id="SVGID_2_" gradientUnits="userSpaceOnUse" x1="-50.875" y1="556.495" x2="-50.875" y2="619.027" gradientTransform="matrix(8 0 0 -8 595 4941)">
	<stop  offset="0" style="stop-color:#006DF0"/>
	<stop  offset="1" style="stop-color:#00E7F0"/>
</linearGradient>
<path style="fill:url(#SVGID_2_);" d="M180,40h16c4.418,0,8-3.582,8-8s-3.582-8-8-8h-16c-4.418,0-8,3.582-8,8S175.582,40,180,40z"/>
<linearGradient id="SVGID_3_" gradientUnits="userSpaceOnUse" x1="-52.875" y1="556.495" x2="-52.875" y2="619.027" gradientTransform="matrix(8 0 0 -8 595 4941)">
	<stop  offset="0" style="stop-color:#006DF0"/>
	<stop  offset="1" style="stop-color:#00E7F0"/>
</linearGradient>
<path style="fill:url(#SVGID_3_);" d="M188,440h-32c-4.418,0-8,3.582-8,8s3.582,8,8,8h32c4.418,0,8-3.582,8-8S192.418,440,188,440z"
	/>
<g>
	
		<linearGradient id="SVGID_4_" gradientUnits="userSpaceOnUse" x1="-55.375" y1="556.495" x2="-55.375" y2="619.027" gradientTransform="matrix(8 0 0 -8 595 4941)">
		<stop  offset="0" style="stop-color:#006DF0"/>
		<stop  offset="1" style="stop-color:#00E7F0"/>
	</linearGradient>
	<path style="fill:url(#SVGID_4_);" d="M148,40h8c4.418,0,8-3.582,8-8s-3.582-8-8-8h-8c-4.418,0-8,3.582-8,8S143.582,40,148,40z"/>
	
		<linearGradient id="SVGID_5_" gradientUnits="userSpaceOnUse" x1="-64.375" y1="556.495" x2="-64.375" y2="619.027" gradientTransform="matrix(8 0 0 -8 595 4941)">
		<stop  offset="0" style="stop-color:#006DF0"/>
		<stop  offset="1" style="stop-color:#00E7F0"/>
	</linearGradient>
	<path style="fill:url(#SVGID_5_);" d="M100,80H60v40h16V96h24V80z"/>
	
		<linearGradient id="SVGID_6_" gradientUnits="userSpaceOnUse" x1="-64.375" y1="556.495" x2="-64.375" y2="619.027" gradientTransform="matrix(8 0 0 -8 595 4941)">
		<stop  offset="0" style="stop-color:#006DF0"/>
		<stop  offset="1" style="stop-color:#00E7F0"/>
	</linearGradient>
	<path style="fill:url(#SVGID_6_);" d="M60,360v40h40v-16H76v-24H60z"/>
	
		<linearGradient id="SVGID_7_" gradientUnits="userSpaceOnUse" x1="-35.875" y1="556.495" x2="-35.875" y2="619.027" gradientTransform="matrix(8 0 0 -8 595 4941)">
		<stop  offset="0" style="stop-color:#006DF0"/>
		<stop  offset="1" style="stop-color:#00E7F0"/>
	</linearGradient>
	<path style="fill:url(#SVGID_7_);" d="M308,96c-79.529,0-144,64.471-144,144s64.471,144,144,144s144-64.471,144-144
		C451.907,160.509,387.491,96.093,308,96z M308,368c-70.692,0-128-57.308-128-128s57.308-128,128-128s128,57.308,128,128
		C435.916,310.658,378.658,367.916,308,368z"/>
	
		<linearGradient id="SVGID_8_" gradientUnits="userSpaceOnUse" x1="-35.875" y1="556.495" x2="-35.875" y2="619.027" gradientTransform="matrix(8 0 0 -8 595 4941)">
		<stop  offset="0" style="stop-color:#006DF0"/>
		<stop  offset="1" style="stop-color:#00E7F0"/>
	</linearGradient>
	<path style="fill:url(#SVGID_8_);" d="M284,208h48v-48h-48V208z M300,176h16v16h-16V176z"/>
	
		<linearGradient id="SVGID_9_" gradientUnits="userSpaceOnUse" x1="-35.875" y1="556.495" x2="-35.875" y2="619.027" gradientTransform="matrix(8 0 0 -8 595 4941)">
		<stop  offset="0" style="stop-color:#006DF0"/>
		<stop  offset="1" style="stop-color:#00E7F0"/>
	</linearGradient>
	<path style="fill:url(#SVGID_9_);" d="M284,264h48v-48h-48V264z M300,232h16v16h-16V232z"/>
	
		<linearGradient id="SVGID_10_" gradientUnits="userSpaceOnUse" x1="-35.875" y1="556.495" x2="-35.875" y2="619.027" gradientTransform="matrix(8 0 0 -8 595 4941)">
		<stop  offset="0" style="stop-color:#006DF0"/>
		<stop  offset="1" style="stop-color:#00E7F0"/>
	</linearGradient>
	<path style="fill:url(#SVGID_10_);" d="M284,320h48v-48h-48V320z M300,288h16v16h-16V288z"/>
	
		<linearGradient id="SVGID_11_" gradientUnits="userSpaceOnUse" x1="-28.875" y1="556.495" x2="-28.875" y2="619.027" gradientTransform="matrix(8 0 0 -8 595 4941)">
		<stop  offset="0" style="stop-color:#006DF0"/>
		<stop  offset="1" style="stop-color:#00E7F0"/>
	</linearGradient>
	<path style="fill:url(#SVGID_11_);" d="M340,208h48v-48h-48V208z M356,176h16v16h-16V176z"/>
	
		<linearGradient id="SVGID_12_" gradientUnits="userSpaceOnUse" x1="-28.875" y1="556.495" x2="-28.875" y2="619.027" gradientTransform="matrix(8 0 0 -8 595 4941)">
		<stop  offset="0" style="stop-color:#006DF0"/>
		<stop  offset="1" style="stop-color:#00E7F0"/>
	</linearGradient>
	<path style="fill:url(#SVGID_12_);" d="M340,264h48v-48h-48V264z M356,232h16v16h-16V232z"/>
	
		<linearGradient id="SVGID_13_" gradientUnits="userSpaceOnUse" x1="-28.875" y1="556.495" x2="-28.875" y2="619.027" gradientTransform="matrix(8 0 0 -8 595 4941)">
		<stop  offset="0" style="stop-color:#006DF0"/>
		<stop  offset="1" style="stop-color:#00E7F0"/>
	</linearGradient>
	<path style="fill:url(#SVGID_13_);" d="M340,320h48v-48h-48V320z M356,288h16v16h-16V288z"/>
	
		<linearGradient id="SVGID_14_" gradientUnits="userSpaceOnUse" x1="-42.875" y1="556.495" x2="-42.875" y2="619.027" gradientTransform="matrix(8 0 0 -8 595 4941)">
		<stop  offset="0" style="stop-color:#006DF0"/>
		<stop  offset="1" style="stop-color:#00E7F0"/>
	</linearGradient>
	<path style="fill:url(#SVGID_14_);" d="M228,208h48v-48h-48V208z M244,176h16v16h-16V176z"/>
	
		<linearGradient id="SVGID_15_" gradientUnits="userSpaceOnUse" x1="-42.875" y1="556.495" x2="-42.875" y2="619.027" gradientTransform="matrix(8 0 0 -8 595 4941)">
		<stop  offset="0" style="stop-color:#006DF0"/>
		<stop  offset="1" style="stop-color:#00E7F0"/>
	</linearGradient>
	<path style="fill:url(#SVGID_15_);" d="M228,264h48v-48h-48V264z M244,232h16v16h-16V232z"/>
	
		<linearGradient id="SVGID_16_" gradientUnits="userSpaceOnUse" x1="-42.875" y1="556.495" x2="-42.875" y2="619.027" gradientTransform="matrix(8 0 0 -8 595 4941)">
		<stop  offset="0" style="stop-color:#006DF0"/>
		<stop  offset="1" style="stop-color:#00E7F0"/>
	</linearGradient>
	<path style="fill:url(#SVGID_16_);" d="M228,320h48v-48h-48V320z M244,288h16v16h-16V288z"/>
</g>
<g>
</g>
<g>
</g>
<g>
</g>
<g>
</g>
<g>
</g>
<g>
</g>
<g>
</g>
<g>
</g>
<g>
</g>
<g>
</g>
<g>
</g>
<g>
</g>
<g>
</g>
<g>
</g>
<g>
</g>
</svg>
